<?xml version="1.0" encoding="UTF-8"?>
<svg width="349.25mm" height="349.25mm" version="1.1" viewBox="0 0 349.25 349.25" xmlns="http://www.w3.org/2000/svg" xmlns:cc="http://creativecommons.org/ns#" xmlns:dc="http://purl.org/dc/elements/1.1/" xmlns:rdf="http://www.w3.org/1999/02/22-rdf-syntax-ns#"><defs><mask id="mask2860" maskUnits="userSpaceOnUse"><path x="-60.476189" y="-40.82143" width="349.25" height="349.25" rx="30.000046" ry="30.000046" d="m-30.476-40.821h289.25c16.62 0 30 13.38 30 30v289.25c0 16.62-13.38 30-30 30h-289.25c-16.62 0-30-13.38-30-30v-289.25c0-16.62 13.38-30 30-30z" fill="#fff"/></mask><mask id="mask2864" maskUnits="userSpaceOnUse"><path x="-60.476189" y="-40.82143" width="349.25" height="349.25" rx="30.000046" ry="30.000046" d="m-30.476-40.821h289.25c16.62 0 30 13.38 30 30v289.25c0 16.62-13.38 30-30 30h-289.25c-16.62 0-30-13.38-30-30v-289.25c0-16.62 13.38-30 30-30z" fill="#fff"/></mask><mask id="mask2864-1" maskUnits="userSpaceOnUse"><path x="-60.476189" y="-40.82143" width="349.25" height="349.25" rx="30.000046" ry="30.000046" d="m-30.476-40.821h289.25c16.62 0 30 13.38 30 30v289.25c0 16.62-13.38 30-30 30h-289.25c-16.62 0-30-13.38-30-30v-289.25c0-16.62 13.38-30 30-30z" fill="#fff"/></mask><mask id="mask2860-9" maskUnits="userSpaceOnUse"><path x="-60.476189" y="-40.82143" width="349.25" height="349.25" rx="30.000046" ry="30.000046" d="m-30.476-40.821h289.25c16.62 0 30 13.38 30 30v289.25c0 16.62-13.38 30-30 30h-289.25c-16.62 0-30-13.38-30-30v-289.25c0-16.62 13.38-30 30-30z" fill="#fff"/></mask><mask id="mask2864-17" maskUnits="userSpaceOnUse"><path x="-60.476189" y="-40.82143" width="349.25" height="349.25" rx="30.000046" ry="30.000046" d="m-30.476-40.821h289.25c16.62 0 30 13.38 30 30v289.25c0 16.62-13.38 30-30 30h-289.25c-16.62 0-30-13.38-30-30v-289.25c0-16.62 13.38-30 30-30z" fill="#fff"/></mask><mask id="mask2860-6" maskUnits="userSpaceOnUse"><path x="-60.476189" y="-40.82143" width="349.25" height="349.25" rx="30.000046" ry="30.000046" d="m-30.476-40.821h289.25c16.62 0 30 13.38 30 30v289.25c0 16.62-13.38 30-30 30h-289.25c-16.62 0-30-13.38-30-30v-289.25c0-16.62 13.38-30 30-30z" fill="#fff"/></mask><mask id="mask2864-4" maskUnits="userSpaceOnUse"><path x="-60.476189" y="-40.82143" width="349.25" height="349.25" rx="30.000046" ry="30.000046" d="m-30.476-40.821h289.25c16.62 0 30 13.38 30 30v289.25c0 16.62-13.38 30-30 30h-289.25c-16.62 0-30-13.38-30-30v-289.25c0-16.62 13.38-30 30-30z" fill="#fff"/></mask><mask id="mask2860-7" maskUnits="userSpaceOnUse"><path x="-60.476189" y="-40.82143" width="349.25" height="349.25" rx="30.000046" ry="30.000046" d="m-30.476-40.821h289.25c16.62 0 30 13.38 30 30v289.25c0 16.62-13.38 30-30 30h-289.25c-16.62 0-30-13.38-30-30v-289.25c0-16.62 13.38-30 30-30z" fill="#fff"/></mask><mask id="mask2864-7" maskUnits="userSpaceOnUse"><path x="-60.476189" y="-40.82143" width="349.25" height="349.25" rx="30.000046" ry="30.000046" d="m-30.476-40.821h289.25c16.62 0 30 13.38 30 30v289.25c0 16.62-13.38 30-30 30h-289.25c-16.62 0-30-13.38-30-30v-289.25c0-16.62 13.38-30 30-30z" fill="#fff"/></mask><mask id="mask2860-8" maskUnits="userSpaceOnUse"><path x="-60.476189" y="-40.82143" width="349.25" height="349.25" rx="30.000046" ry="30.000046" d="m-30.476-40.821h289.25c16.62 0 30 13.38 30 30v289.25c0 16.62-13.38 30-30 30h-289.25c-16.62 0-30-13.38-30-30v-289.25c0-16.62 13.38-30 30-30z" fill="#fff"/></mask><mask id="mask2864-0" maskUnits="userSpaceOnUse"><path x="-60.476189" y="-40.82143" width="349.25" height="349.25" rx="30.000046" ry="30.000046" d="m-30.476-40.821h289.25c16.62 0 30 13.38 30 30v289.25c0 16.62-13.38 30-30 30h-289.25c-16.62 0-30-13.38-30-30v-289.25c0-16.62 13.38-30 30-30z" fill="#fff"/></mask><mask id="mask2860-94" maskUnits="userSpaceOnUse"><path x="-60.476189" y="-40.82143" width="349.25" height="349.25" rx="30.000046" ry="30.000046" d="m-30.476-40.821h289.25c16.62 0 30 13.38 30 30v289.25c0 16.62-13.38 30-30 30h-289.25c-16.62 0-30-13.38-30-30v-289.25c0-16.62 13.38-30 30-30z" fill="#fff"/></mask><mask id="mask2864-2" maskUnits="userSpaceOnUse"><path x="-60.476189" y="-40.82143" width="349.25" height="349.25" rx="30.000046" ry="30.000046" d="m-30.476-40.821h289.25c16.62 0 30 13.38 30 30v289.25c0 16.62-13.38 30-30 30h-289.25c-16.62 0-30-13.38-30-30v-289.25c0-16.62 13.38-30 30-30z" fill="#fff"/></mask><mask id="mask2860-80" maskUnits="userSpaceOnUse"><path x="-60.476189" y="-40.82143" width="349.25" height="349.25" rx="30.000046" ry="30.000046" d="m-30.476-40.821h289.25c16.62 0 30 13.38 30 30v289.25c0 16.62-13.38 30-30 30h-289.25c-16.62 0-30-13.38-30-30v-289.25c0-16.62 13.38-30 30-30z" fill="#fff"/></mask><mask id="mask2864-9" maskUnits="userSpaceOnUse"><path x="-60.476189" y="-40.82143" width="349.25" height="349.25" rx="30.000046" ry="30.000046" d="m-30.476-40.821h289.25c16.62 0 30 13.38 30 30v289.25c0 16.62-13.38 30-30 30h-289.25c-16.62 0-30-13.38-30-30v-289.25c0-16.62 13.38-30 30-30z" fill="#fff"/></mask><mask id="mask2860-0" maskUnits="userSpaceOnUse"><path x="-60.476189" y="-40.82143" width="349.25" height="349.25" rx="30.000046" ry="30.000046" d="m-30.476-40.821h289.25c16.62 0 30 13.38 30 30v289.25c0 16.62-13.38 30-30 30h-289.25c-16.62 0-30-13.38-30-30v-289.25c0-16.62 13.38-30 30-30z" fill="#fff"/></mask><mask id="mask2864-18-7" maskUnits="userSpaceOnUse"><path x="-60.476189" y="-40.82143" width="349.25" height="349.25" rx="30.000046" ry="30.000046" d="m-30.476-40.821h289.25c16.62 0 30 13.38 30 30v289.25c0 16.62-13.38 30-30 30h-289.25c-16.62 0-30-13.38-30-30v-289.25c0-16.62 13.38-30 30-30z" fill="#fff"/></mask><mask id="mask2860-3-1" maskUnits="userSpaceOnUse"><path x="-60.476189" y="-40.82143" width="349.25" height="349.25" rx="30.000046" ry="30.000046" d="m-30.476-40.821h289.25c16.62 0 30 13.38 30 30v289.25c0 16.62-13.38 30-30 30h-289.25c-16.62 0-30-13.38-30-30v-289.25c0-16.62 13.38-30 30-30z" fill="#fff"/></mask><mask id="mask2864-18-7-9" maskUnits="userSpaceOnUse"><path x="-60.476189" y="-40.82143" width="349.25" height="349.25" rx="30.000046" ry="30.000046" d="m-30.476-40.821h289.25c16.62 0 30 13.38 30 30v289.25c0 16.62-13.38 30-30 30h-289.25c-16.62 0-30-13.38-30-30v-289.25c0-16.62 13.38-30 30-30z" fill="#fff"/></mask><mask id="mask2860-3-1-9" maskUnits="userSpaceOnUse"><path x="-60.476189" y="-40.82143" width="349.25" height="349.25" rx="30.000046" ry="30.000046" d="m-30.476-40.821h289.25c16.62 0 30 13.38 30 30v289.25c0 16.62-13.38 30-30 30h-289.25c-16.62 0-30-13.38-30-30v-289.25c0-16.62 13.38-30 30-30z" fill="#fff"/></mask><mask id="mask2864-18-4" maskUnits="userSpaceOnUse"><path x="-60.476189" y="-40.82143" width="349.25" height="349.25" rx="30.000046" ry="30.000046" d="m-30.476-40.821h289.25c16.62 0 30 13.38 30 30v289.25c0 16.62-13.38 30-30 30h-289.25c-16.62 0-30-13.38-30-30v-289.25c0-16.62 13.38-30 30-30z" fill="#fff"/></mask><mask id="mask2860-3-7" maskUnits="userSpaceOnUse"><path x="-60.476189" y="-40.82143" width="349.25" height="349.25" rx="30.000046" ry="30.000046" d="m-30.476-40.821h289.25c16.62 0 30 13.38 30 30v289.25c0 16.62-13.38 30-30 30h-289.25c-16.62 0-30-13.38-30-30v-289.25c0-16.62 13.38-30 30-30z" fill="#fff"/></mask><mask id="mask2864-19-6" maskUnits="userSpaceOnUse"><path x="-60.476189" y="-40.82143" width="349.25" height="349.25" rx="30.000046" ry="30.000046" d="m-30.476-40.821h289.25c16.62 0 30 13.38 30 30v289.25c0 16.62-13.38 30-30 30h-289.25c-16.62 0-30-13.38-30-30v-289.25c0-16.62 13.38-30 30-30z" fill="#fff"/></mask><mask id="mask2860-69-4" maskUnits="userSpaceOnUse"><path x="-60.476189" y="-40.82143" width="349.25" height="349.25" rx="30.000046" ry="30.000046" d="m-30.476-40.821h289.25c16.62 0 30 13.38 30 30v289.25c0 16.62-13.38 30-30 30h-289.25c-16.62 0-30-13.38-30-30v-289.25c0-16.62 13.38-30 30-30z" fill="#fff"/></mask></defs><metadata><rdf:RDF><cc:Work rdf:about=""><dc:format>image/svg+xml</dc:format><dc:type rdf:resource="http://purl.org/dc/dcmitype/StillImage"/><dc:title/></cc:Work></rdf:RDF></metadata><g transform="translate(60.476 40.821)"><path x="1033.8405" y="927.03284" width="349.25" height="349.25" rx="30.000046" ry="30.000046" d="m1063.8 927.03h289.25c16.62 0 30 13.38 30 30v289.25c0 16.62-13.38 30-30 30h-289.25c-16.62 0-30-13.38-30-30v-289.25c0-16.62 13.38-30 30-30z" fill="#444"/><path transform="translate(1094.3 967.85)" d="m-107.74 282.81c509.14-261.11 460.01-51.847 460.01-51.847l11.849 168.6-463.58 19.458z" fill="#66b7d1" mask="url(#mask2864)" stroke="#add8e6" stroke-width=".26458px"/><path transform="translate(1094.3 967.85)" d="m-60.476 274.78c477.76-154.21 461.89 30.994 461.89 30.994l-16.631 183.7-459.62-63.5z" fill="#add8e6" mask="url(#mask2860)" stroke="#add8e6" stroke-width=".26458px"/><text fill="black" font-family="sans-serif" font-size="10.583px" style="line-height:1.25;shape-inside:url(#rect2007);white-space:pre" xml:space="preserve"/><g transform="matrix(1.521 0 0 1.521 1170.2 942.52)" fill="#fff" style="shape-inside:url(#rect2013);white-space:pre" aria-label="f"><path d="m-50.881 194.35c5.6444 0 9.6896-0.37629 12.136-1.1289 2.4459-0.75259 4.0452-2.0696 4.7978-3.9511s1.1289-4.8918 1.1289-9.0311v-97.931h-18.062v-11.289h18.062v-17.216c0-15.052 4.3274-26.905 12.982-35.56 8.6548-8.843 20.32-13.264 34.996-13.264 11.477 0 20.32 2.54 26.529 7.62 6.2089 5.08 9.3133 11.383 9.3133 18.909 0 4.5156-1.223 8.0904-3.6689 10.724s-6.1148 3.9511-11.007 3.9511c-4.7037 0-8.3726-1.223-11.007-3.6689-2.4459-2.4459-3.6689-5.8326-3.6689-10.16 0-2.8222 0.56444-5.3622 1.6933-7.62 1.317-2.2578 1.9756-3.857 1.9756-4.7978 0-1.317-0.94074-2.54-2.8222-3.6689-1.6933-1.317-3.857-1.9756-6.4911-1.9756-10.536 0-15.804 8.4667-15.804 25.4v31.327h49.603l0.49201 11.289h-50.095v97.931c0 4.3274 0.47037 7.4318 1.4111 9.3133 0.94074 1.8815 2.9163 3.1985 5.9267 3.9511 3.0104 0.56444 8.0904 0.84666 15.24 0.84666v9.3133h-73.66z" fill="#fff"/></g><path x="-1954.9368" y="927.03284" width="349.25" height="349.25" rx="30.000046" ry="30.000046" d="m-1924.9 927.03h289.25c16.62 0 30 13.38 30 30v289.25c0 16.62-13.38 30-30 30h-289.25c-16.62 0-30-13.38-30-30v-289.25c0-16.62 13.38-30 30-30z" fill="#444"/><path transform="translate(-1894.5 967.85)" d="m-107.74 282.81c509.14-261.11 460.01-51.847 460.01-51.847l11.849 168.6-463.58 19.458z" fill="#66b7d1" mask="url(#mask2864-1)" stroke="#add8e6" stroke-width=".26458px"/><path transform="translate(-1894.5 967.85)" d="m-60.476 274.78c477.76-154.21 461.89 30.994 461.89 30.994l-16.631 183.7-459.62-63.5z" fill="#add8e6" mask="url(#mask2860-9)" stroke="#add8e6" stroke-width=".26458px"/><text transform="matrix(1.521 0 0 1.521 -1826.7 923.4)" fill="#ffffff" font-family="sans-serif" font-size="282.22px" stroke-opacity=".14613" stroke-width="2.1177" style="line-height:1.25;shape-inside:url(#rect2013-2);white-space:pre" xml:space="preserve"><tspan x="-60.476562" y="216.65741"><tspan fill="#ffffff" font-family="Taviraj" font-size="282.22px" font-style="italic" font-weight="bold" stroke-opacity=".14613" stroke-width="2.1177">F</tspan></tspan></text><path x="-1535.3394" y="927.03284" width="349.25" height="349.25" rx="30.000046" ry="30.000046" d="m-1505.3 927.03h289.25c16.62 0 30 13.38 30 30v289.25c0 16.62-13.38 30-30 30h-289.25c-16.62 0-30-13.38-30-30v-289.25c0-16.62 13.38-30 30-30z" fill="#444"/><path transform="translate(-1474.9 967.85)" d="m-107.74 282.81c509.14-261.11 460.01-51.847 460.01-51.847l11.849 168.6-463.58 19.458z" fill="#66b7d1" mask="url(#mask2864-17)" stroke="#add8e6" stroke-width=".26458px"/><path transform="translate(-1474.9 967.85)" d="m-60.476 274.78c477.76-154.21 461.89 30.994 461.89 30.994l-16.631 183.7-459.62-63.5z" fill="#add8e6" mask="url(#mask2860-6)" stroke="#add8e6" stroke-width=".26458px"/><text transform="matrix(1.521 0 0 1.521 -1385.9 940.03)" fill="#ffffff" font-family="sans-serif" font-size="282.22px" stroke-opacity=".14613" stroke-width="2.1177" style="line-height:1.25;shape-inside:url(#rect2013-9);white-space:pre" xml:space="preserve"><tspan x="-60.476562" y="216.65741"><tspan fill="#ffffff" font-family="Taviraj" font-size="282.22px" font-style="italic" font-weight="bold" stroke-opacity=".14613" stroke-width="2.1177">f</tspan></tspan></text><path x="-1112.006" y="927.03284" width="349.25" height="349.25" rx="30.000046" ry="30.000046" d="m-1082 927.03h289.25c16.62 0 30 13.38 30 30v289.25c0 16.62-13.38 30-30 30h-289.25c-16.62 0-30-13.38-30-30v-289.25c0-16.62 13.38-30 30-30z" fill="#444"/><path transform="translate(-1051.5 967.85)" d="m-107.74 282.81c509.14-261.11 460.01-51.847 460.01-51.847l11.849 168.6-463.58 19.458z" fill="#66b7d1" mask="url(#mask2864-4)" stroke="#add8e6" stroke-width=".26458px"/><path transform="translate(-1051.5 967.85)" d="m-60.476 274.78c477.76-154.21 461.89 30.994 461.89 30.994l-16.631 183.7-459.62-63.5z" fill="#add8e6" mask="url(#mask2860-7)" stroke="#add8e6" stroke-width=".26458px"/><text transform="matrix(1.521 0 0 1.521 -1004.9 943.05)" fill="#ffffff" font-family="'Frank Ruhl Libre'" font-size="282.22px" font-weight="500" stroke-opacity=".14613" stroke-width="2.1177" style="line-height:1.25;shape-inside:url(#rect2013-3);white-space:pre" xml:space="preserve"><tspan x="-60.476562" y="203.66264"><tspan fill="#ffffff" font-family="'Frank Ruhl Libre'" font-size="282.22px" font-weight="500" stroke-opacity=".14613" stroke-width="2.1177">f</tspan></tspan></text><g transform="matrix(1.521 0 0 1.521 1302.1 937.1)" fill="#fff" stroke-opacity=".14613" stroke-width="2.1177" style="shape-inside:url(#rect2013-28);white-space:pre" aria-label="t"><path d="m-8.2655 214.64c-10.348 0-18.439-2.8222-24.271-8.4667-5.8326-5.8326-8.7489-14.017-8.7489-24.553v-95.736l-10.762-0.0062-5.8889-11.29c9.7837-3.0104 17.592-6.1076 23.424-13.54s10.442-17.78 13.829-30.762h11.853v44.309h30.198v11.289h-30.198v85.859c0 8.4667 1.5993 14.77 4.7978 18.909 3.1985 4.1393 8.1844 6.2089 14.958 6.2089 5.08 0 9.7837-0.94074 14.111-2.8222l3.1044 7.0556c-6.9615 4.5156-12.982 7.9022-18.062 10.16-4.8918 2.2578-11.007 3.3867-18.344 3.3867z"/></g><path x="-697.74408" y="927.0329" width="349.25" height="349.25" rx="30.000046" ry="30.000046" d="m-667.74 927.03h289.25c16.62 0 30 13.38 30 30v289.25c0 16.62-13.38 30-30 30h-289.25c-16.62 0-30-13.38-30-30v-289.25c0-16.62 13.38-30 30-30z" fill="#444"/><path transform="translate(-637.27 967.85)" d="m-107.74 282.81c509.14-261.11 460.01-51.847 460.01-51.847l11.849 168.6-463.58 19.458z" fill="#66b7d1" mask="url(#mask2864-7)" stroke="#add8e6" stroke-width=".26458px"/><path transform="translate(-637.27 967.85)" d="m-60.476 274.78c477.76-154.21 461.89 30.994 461.89 30.994l-16.631 183.7-459.62-63.5z" fill="#add8e6" mask="url(#mask2860-8)" stroke="#add8e6" stroke-width=".26458px"/><text transform="matrix(1.521 0 0 1.521 -590.66 943.05)" fill="#ffffff" font-family="'Frank Ruhl Libre'" font-size="282.22px" font-weight="500" stroke-opacity=".14613" stroke-width="2.1177" style="line-height:1.25;shape-inside:url(#rect2013-5);white-space:pre" xml:space="preserve"><tspan x="-60.476562" y="203.66264"><tspan fill="#ffffff" font-family="'Frank Ruhl Libre'" font-size="282.22px" font-weight="500" stroke-opacity=".14613" stroke-width="2.1177">f</tspan></tspan></text><text transform="matrix(1.521 0 0 1.521 -417.35 937.62)" fill="#ffffff" font-family="'Frank Ruhl Libre'" font-size="282.22px" font-weight="500" stroke-opacity=".14613" stroke-width="2.1177" style="line-height:1.25;shape-inside:url(#rect2013-28-0);white-space:pre" xml:space="preserve"><tspan x="-60.476562" y="203.66264"><tspan>t</tspan></tspan></text><path x="-265.17508" y="927.03284" width="349.25" height="349.25" rx="30.000046" ry="30.000046" d="m-235.18 927.03h289.25c16.62 0 30 13.38 30 30v289.25c0 16.62-13.38 30-30 30h-289.25c-16.62 0-30-13.38-30-30v-289.25c0-16.62 13.38-30 30-30z" fill="#444"/><path transform="translate(-204.7 967.85)" d="m-107.74 282.81c509.14-261.11 460.01-51.847 460.01-51.847l11.849 168.6-463.58 19.458z" fill="#66b7d1" mask="url(#mask2864-0)" stroke="#add8e6" stroke-width=".26458px"/><path transform="translate(-204.7 967.85)" d="m-60.476 274.78c477.76-154.21 461.89 30.994 461.89 30.994l-16.631 183.7-459.62-63.5z" fill="#add8e6" mask="url(#mask2860-94)" stroke="#add8e6" stroke-width=".26458px"/><text transform="matrix(1.521 0 0 1.521 -148.83 943.05)" fill="#ffffff" font-family="'Frank Ruhl Libre'" font-size="282.22px" font-weight="500" stroke-opacity=".14613" stroke-width="2.1177" style="line-height:1.25;shape-inside:url(#rect2013-55);white-space:pre" xml:space="preserve"><tspan x="-60.476562" y="203.66264"><tspan fill="#ffffff" font-family="'Frank Ruhl Libre'" font-size="282.22px" font-weight="500" stroke-opacity=".14613" stroke-width="2.1177">f</tspan></tspan></text><g transform="matrix(1.521 0 0 1.521 2.3198 937.62)" fill="#fff" stroke-opacity=".14613" stroke-width="2.1177" style="shape-inside:url(#rect2013-28);white-space:pre" aria-label="t"><path d="m-8.2655 214.64c-10.348 0-18.439-2.8222-24.271-8.4667-5.8326-5.8326-8.7489-14.017-8.7489-24.553v-95.736h-16.651v-11.296c9.7837-3.0104 17.592-6.1076 23.424-13.54s10.442-17.78 13.829-30.762h11.853v44.309h30.198v11.289h-30.198v85.859c0 8.4667 1.5993 14.77 4.7978 18.909 3.1985 4.1393 8.1844 6.2089 14.958 6.2089 5.08 0 9.7837-0.94074 14.111-2.8222l3.1044 7.0556c-6.9615 4.5156-12.982 7.9022-18.062 10.16-4.8918 2.2578-11.007 3.3867-18.344 3.3867z"/></g><path x="160.53813" y="927.03284" width="349.25" height="349.25" rx="30.000046" ry="30.000046" d="m190.54 927.03h289.25c16.62 0 30 13.38 30 30v289.25c0 16.62-13.38 30-30 30h-289.25c-16.62 0-30-13.38-30-30v-289.25c0-16.62 13.38-30 30-30z" fill="#444"/><path transform="translate(221.01 967.85)" d="m-107.74 282.81c509.14-261.11 460.01-51.847 460.01-51.847l11.849 168.6-463.58 19.458z" fill="#66b7d1" mask="url(#mask2864-2)" stroke="#add8e6" stroke-width=".26458px"/><path transform="translate(221.01 967.85)" d="m-60.476 274.78c477.76-154.21 461.89 30.994 461.89 30.994l-16.631 183.7-459.62-63.5z" fill="#add8e6" mask="url(#mask2860-80)" stroke="#add8e6" stroke-width=".26458px"/><g transform="matrix(1.521 0 0 1.521 288.47 943.05)" fill="#fff" style="shape-inside:url(#rect2013);white-space:pre" aria-label="f"><path d="m-50.881 194.35q8.4667 0 12.136-1.1289 3.6689-1.1289 4.7978-3.9511t1.1289-9.0311v-97.931h-18.062v-11.289h18.062v-17.216q0-22.578 12.982-35.56 12.982-13.264 34.996-13.264 17.216 0 26.529 7.62 9.3133 7.62 9.3133 18.909 0 6.7733-3.6689 10.724t-11.007 3.9511q-7.0555 0-11.007-3.6689-3.6689-3.6689-3.6689-10.16 0-4.2333 1.6933-7.62 1.9756-3.3867 1.9756-4.7978 0-1.9756-2.8222-3.6689-2.54-1.9756-6.4911-1.9756-15.804 0-15.804 25.4v31.327h31.891v11.289h-31.891v97.931q0 6.4911 1.4111 9.3133 1.4111 2.8222 5.9267 3.9511 4.5156 0.84666 15.24 0.84666v9.3133h-73.66z" fill="#fff"/></g><g transform="matrix(1.521 0 0 1.521 416.45 937.62)" fill="#fff" stroke-opacity=".14613" stroke-width="2.1177" style="shape-inside:url(#rect2013-28);white-space:pre" aria-label="t"><path d="m-8.2655 214.64c-10.348 0-18.439-2.8222-24.271-8.4667-5.8326-5.8326-8.7489-14.017-8.7489-24.553v-95.736l-10.762-0.0062-5.8889-11.29c9.7837-3.0104 17.592-6.1076 23.424-13.54s10.442-17.78 13.829-30.762h11.853v44.309h30.198v11.289h-30.198v85.859c0 8.4667 1.5993 14.77 4.7978 18.909 3.1985 4.1393 8.1844 6.2089 14.958 6.2089 5.08 0 9.7837-0.94074 14.111-2.8222l3.1044 7.0556c-6.9615 4.5156-12.982 7.9022-18.062 10.16-4.8918 2.2578-11.007 3.3867-18.344 3.3867z"/></g><path x="598.86548" y="927.03284" width="349.25" height="349.25" rx="30.000046" ry="30.000046" d="m628.87 927.03h289.25c16.62 0 30 13.38 30 30v289.25c0 16.62-13.38 30-30 30h-289.25c-16.62 0-30-13.38-30-30v-289.25c0-16.62 13.38-30 30-30z" fill="#444"/><path transform="translate(659.34 967.85)" d="m-107.74 282.81c509.14-261.11 460.01-51.847 460.01-51.847l11.849 168.6-463.58 19.458z" fill="#66b7d1" mask="url(#mask2864-9)" stroke="#add8e6" stroke-width=".26458px"/><path transform="translate(659.34 967.85)" d="m-60.476 274.78c477.76-154.21 461.89 30.994 461.89 30.994l-16.631 183.7-459.62-63.5z" fill="#add8e6" mask="url(#mask2860-0)" stroke="#add8e6" stroke-width=".26458px"/><g transform="matrix(1.521 0 0 1.521 735.26 942.52)" fill="#fff" style="shape-inside:url(#rect2013);white-space:pre" aria-label="f"><path d="m-50.881 194.35q8.4667 0 12.136-1.1289 3.6689-1.1289 4.7978-3.9511t1.1289-9.0311v-97.931h-18.062v-11.289h18.062v-17.216q0-22.578 12.982-35.56 12.982-13.264 34.996-13.264 17.216 0 26.529 7.62 9.3133 7.62 9.3133 18.909 0 6.7733-3.6689 10.724t-11.007 3.9511q-7.0555 0-11.007-3.6689-3.6689-3.6689-3.6689-10.16 0-4.2333 1.6933-7.62 1.9756-3.3867 1.9756-4.7978 0-1.9756-2.8222-3.6689-2.54-1.9756-6.4911-1.9756-15.804 0-15.804 25.4v31.327h31.891v11.289h-31.891v97.931q0 6.4911 1.4111 9.3133 1.4111 2.8222 5.9267 3.9511 4.5156 0.84666 15.24 0.84666v9.3133h-73.66z" fill="#fff"/></g><g transform="matrix(1.521 0 0 1.521 863.24 937.1)" fill="#fff" stroke-opacity=".14613" stroke-width="2.1177" style="shape-inside:url(#rect2013-28);white-space:pre" aria-label="t"><path d="m-8.2655 214.64c-10.348 0-18.439-2.8222-24.271-8.4667-5.8326-5.8326-8.7489-14.017-8.7489-24.553v-95.736l-10.762-0.0062-5.8889-11.29c9.7837-3.0104 17.592-6.1076 23.424-13.54s10.442-17.78 13.829-30.762h11.853v44.309h30.198v11.289h-30.198v85.859c0 8.4667 1.5993 14.77 4.7978 18.909 3.1985 4.1393 8.1844 6.2089 14.958 6.2089 5.08 0 9.7837-0.94074 14.111-2.8222l3.1044 7.0556c-6.9615 4.5156-12.982 7.9022-18.062 10.16-4.8918 2.2578-11.007 3.3867-18.344 3.3867z"/></g><path x="1464.4896" y="927.03284" width="349.25" height="349.25" rx="30.000046" ry="30.000046" d="m1494.5 927.03h289.25c16.62 0 30 13.38 30 30v289.25c0 16.62-13.38 30-30 30h-289.25c-16.62 0-30-13.38-30-30v-289.25c0-16.62 13.38-30 30-30z" fill="#444"/><path transform="translate(1525 967.85)" d="m-107.74 282.81c509.14-261.11 460.01-51.847 460.01-51.847l11.849 168.6-463.58 19.458z" fill="#66b7d1" mask="url(#mask2864-18-7)" stroke="#add8e6" stroke-width=".26458px"/><path transform="translate(1525 967.85)" d="m-60.476 274.78c477.76-154.21 461.89 30.994 461.89 30.994l-16.631 183.7-459.62-63.5z" fill="#add8e6" mask="url(#mask2860-3-1)" stroke="#add8e6" stroke-width=".26458px"/><g transform="matrix(1.521 0 0 1.521 1600.9 942.52)" fill="#fff" style="shape-inside:url(#rect2013);white-space:pre" aria-label="f"><path d="m-50.881 194.35c5.6444 0 9.6896-0.37629 12.136-1.1289 2.4459-0.75259 4.0452-2.0696 4.7978-3.9511s1.1289-4.8918 1.1289-9.0311v-97.931h-18.062v-11.289h18.062v-17.216c0-15.052 4.3274-26.905 12.982-35.56 8.6548-8.843 20.32-13.264 34.996-13.264 11.477 0 20.32 2.54 26.529 7.62 6.2089 5.08 9.3133 11.383 9.3133 18.909 0 4.5156-1.223 8.0904-3.6689 10.724s-6.1148 3.9511-11.007 3.9511c-4.7037 0-8.3726-1.223-11.007-3.6689-2.4459-2.4459-3.6689-5.8326-3.6689-10.16 0-2.8222 0.56444-5.3622 1.6933-7.62 1.317-2.2578 1.9756-3.857 1.9756-4.7978 0-1.317-0.94074-2.54-2.8222-3.6689-1.6933-1.317-3.857-1.9756-6.4911-1.9756-10.536 0-15.804 8.4667-15.804 25.4v31.327h49.603l0.49201 11.289h-50.095v97.931c0 4.3274 0.47037 7.4318 1.4111 9.3133 0.94074 1.8815 2.9163 3.1985 5.9267 3.9511 3.0104 0.56444 8.0904 0.84666 15.24 0.84666v9.3133h-73.66z" fill="#fff"/></g><g transform="matrix(1.521 0 0 1.521 1732.7 937.1)" fill="#fff" stroke-opacity=".14613" stroke-width="2.1177" style="shape-inside:url(#rect2013-28);white-space:pre" aria-label="t"><path d="m-8.2655 208.99c-10.348 0-18.439-2.8222-24.271-8.4667-5.8326-5.8326-8.7489-14.017-8.7489-24.553v-90.091l-10.762-0.0062-5.8889-11.29c9.7837-3.0104 17.592-6.1076 23.424-13.54s10.442-17.78 13.829-30.762h11.853v44.309h30.198v11.289h-30.198v80.213c0 8.4667 1.5993 14.77 4.7978 18.909 3.1985 4.1393 8.1844 6.2089 14.958 6.2089 5.08 0 9.7837-0.94074 14.111-2.8222l3.1044 7.0556c-6.9615 4.5156-12.982 7.9022-18.062 10.16-4.8918 2.2578-11.007 3.3867-18.344 3.3867z"/></g><path x="1887.6711" y="927.0329" width="349.25" height="349.25" rx="30.000046" ry="30.000046" d="m1917.7 927.03h289.25c16.62 0 30 13.38 30 30v289.25c0 16.62-13.38 30-30 30h-289.25c-16.62 0-30-13.38-30-30v-289.25c0-16.62 13.38-30 30-30z" fill="#444"/><path transform="translate(1948.1 967.85)" d="m-107.74 282.81c509.14-261.11 460.01-51.847 460.01-51.847l11.849 168.6-463.58 19.458z" fill="#66b7d1" mask="url(#mask2864-18-7-9)" stroke="#add8e6" stroke-width=".26458px"/><path transform="translate(1948.1 967.85)" d="m-60.476 274.78c477.76-154.21 461.89 30.994 461.89 30.994l-16.631 183.7-459.62-63.5z" fill="#add8e6" mask="url(#mask2860-3-1-9)" stroke="#add8e6" stroke-width=".26458px"/><g transform="matrix(1.521 0 0 1.521 2020.3 942.52)" fill="#fff" style="shape-inside:url(#rect2013);white-space:pre" aria-label="f"><path d="m-50.881 194.35c5.6444 0 9.6896-0.37629 12.136-1.1289 2.4459-0.75259 4.0452-2.0696 4.7978-3.9511s1.1289-4.8918 1.1289-9.0311v-97.931h-18.062v-11.289h18.062v-17.216c0-15.052 4.3274-26.905 12.982-35.56 8.6548-8.843 20.32-13.264 34.996-13.264 11.477 0 20.32 2.54 26.529 7.62 6.2089 5.08 9.3133 11.383 9.3133 18.909 0 4.5156-1.223 8.0904-3.6689 10.724s-6.1148 3.9511-11.007 3.9511c-4.7037 0-8.3726-1.223-11.007-3.6689-2.4459-2.4459-3.6689-5.8326-3.6689-10.16 0-2.8222 0.56444-5.3622 1.6933-7.62 1.317-2.2578 1.9756-3.857 1.9756-4.7978 0-1.317-0.94074-2.54-2.8222-3.6689-1.6933-1.317-3.857-1.9756-6.4911-1.9756-10.536 0-15.804 8.4667-15.804 25.4v31.327h49.603l0.49201 11.289h-50.095v97.931c0 4.3274 0.47037 7.4318 1.4111 9.3133 0.94074 1.8815 2.9163 3.1985 5.9267 3.9511 3.0104 0.56444 8.0904 0.84666 15.24 0.84666v9.3133h-73.66z" fill="#fff"/></g><g transform="matrix(1.521 0 0 1.521 2152.1 937.1)" fill="#fff" stroke-opacity=".14613" stroke-width="2.1177" style="shape-inside:url(#rect2013-28);white-space:pre" aria-label="t"><path d="m-8.2655 208.99c-10.348 0-18.439-2.8222-24.271-8.4667-5.8326-5.8326-8.7489-14.017-8.7489-24.553v-90.091l-10.762-0.0062-5.8889-11.29c9.7837-3.0104 17.592-6.1076 23.424-13.54s10.442-17.78 13.829-30.762h11.853v44.309h30.198v11.289h-30.198v80.213c0 8.4667 1.5993 14.77 4.7978 18.909 3.1985 4.1393 8.1844 6.2089 14.958 6.2089 5.08 0 9.7837-0.94074 14.111-2.8222l3.1044 7.0556c-6.9615 4.5156-12.982 7.9022-18.062 10.16-4.8918 2.2578-11.007 3.3867-18.344 3.3867z"/></g><path x="2302.7822" y="927.03284" width="349.25" height="349.25" rx="30.000046" ry="30.000046" d="m2332.8 927.03h289.25c16.62 0 30 13.38 30 30v289.25c0 16.62-13.38 30-30 30h-289.25c-16.62 0-30-13.38-30-30v-289.25c0-16.62 13.38-30 30-30z" fill="#444"/><path transform="translate(2363.3 967.85)" d="m-107.74 282.81c509.14-261.11 460.01-51.847 460.01-51.847l11.849 168.6-463.58 19.458z" fill="#66b7d1" mask="url(#mask2864-18-4)" stroke="#add8e6" stroke-width=".26458px"/><path transform="translate(2363.3 967.85)" d="m-60.476 274.78c477.76-154.21 461.89 30.994 461.89 30.994l-16.631 183.7-459.62-63.5z" fill="#add8e6" mask="url(#mask2860-3-7)" stroke="#add8e6" stroke-width=".26458px"/><g transform="matrix(1.521 0 0 1.521 2428.8 942.52)" fill="#fff" style="shape-inside:url(#rect2013);white-space:pre" aria-label="f"><path d="m-50.881 194.35c5.6444 0 9.6896-0.37629 12.136-1.1289 2.4459-0.75259 4.0452-2.0696 4.7978-3.9511s1.1289-4.8918 1.1289-9.0311v-97.931h-18.062v-11.289h18.062v-17.216c0-15.052 4.3274-26.905 12.982-35.56 8.6548-8.843 20.32-13.264 34.996-13.264 11.477 0 20.32 2.54 26.529 7.62 6.2089 5.08 9.3133 11.383 9.3133 18.909 0 4.5156-1.223 8.0904-3.6689 10.724s-6.1148 3.9511-11.007 3.9511c-4.7037 0-8.3726-1.223-11.007-3.6689-2.4459-2.4459-3.6689-5.8326-3.6689-10.16 0-2.8222 0.56444-5.3622 1.6933-7.62 1.317-2.2578 1.9756-3.857 1.9756-4.7978 0-1.317-0.94074-2.54-2.8222-3.6689-1.6933-1.317-3.857-1.9756-6.4911-1.9756-10.536 0-15.804 8.4667-15.804 25.4v31.327h49.603l0.49201 11.289h-50.095v97.931c0 4.3274 0.47037 7.4318 1.4111 9.3133 0.94074 1.8815 2.9163 3.1985 5.9267 3.9511 3.0104 0.56444 8.0904 0.84666 15.24 0.84666v9.3133h-73.66z" fill="#fff"/></g><g transform="matrix(1.521 0 0 1.521 2560.6 937.1)" fill="#fff" stroke-opacity=".14613" stroke-width="2.1177" style="shape-inside:url(#rect2013-28);white-space:pre" aria-label="t"><path d="m-8.2655 208.99c-10.348 0-18.439-2.8222-24.271-8.4667-5.8326-5.8326-8.7489-14.017-8.7489-24.553v-90.091l-10.762-0.0062-5.8889-11.29c9.7837-3.0104 17.592-6.1076 23.424-13.54s10.442-17.78 13.829-30.762h11.853v44.309h30.198v11.289h-30.198v80.213c0 8.4667 1.5993 14.77 4.7978 18.909 3.1985 4.1393 8.1844 6.2089 14.958 6.2089 5.08 0 9.7837-0.94074 14.111-2.8222l3.1044 7.0556c-6.9615 4.5156-12.982 7.9022-18.062 10.16-4.8918 2.2578-11.007 3.3867-18.344 3.3867z"/></g><path x="1271.5533" y="-829.77258" width="455.08334" height="455.08334" rx="39.090969" ry="39.090969" d="m1310.6-829.77h376.9c21.656 0 39.091 17.435 39.091 39.091v376.9c0 21.656-17.435 39.091-39.091 39.091h-376.9c-21.656 0-39.091-17.435-39.091-39.091v-376.9c0-21.656 17.435-39.091 39.091-39.091z" fill="#444"/><path transform="matrix(1.8788 0 0 1.8788 1284.6 -885.03)" d="m-106.62 290.14c366.1-245.64 392.73-61.136 458.89-59.17l11.849 168.6-463.58 19.458z" fill="#66b7d1" mask="url(#mask2864-19-6)" stroke="#add8e6" stroke-width=".26458px"/><g transform="matrix(1.521 0 0 1.521 1460.9 -761.36)" fill="#fff" style="shape-inside:url(#rect2013);white-space:pre" aria-label="f"><path d="m-50.881 194.35c5.6444 0 9.6896-0.37629 12.136-1.1289 2.4459-0.75259 4.0452-2.0696 4.7978-3.9511s1.1289-4.8918 1.1289-9.0311v-97.931h-18.062v-11.289h18.062v-17.216c0-15.052 4.3274-26.905 12.982-35.56 8.6548-8.843 20.32-13.264 34.996-13.264 11.477 0 20.32 2.54 26.529 7.62 6.2089 5.08 9.3133 11.383 9.3133 18.909 0 4.5156-1.223 8.0904-3.6689 10.724s-6.1148 3.9511-11.007 3.9511c-4.7037 0-8.3726-1.223-11.007-3.6689-2.4459-2.4459-3.6689-5.8326-3.6689-10.16 0-2.8222 0.56444-5.3622 1.6933-7.62 1.317-2.2578 1.9756-3.857 1.9756-4.7978 0-1.317-0.94074-2.54-2.8222-3.6689-1.6933-1.317-3.857-1.9756-6.4911-1.9756-10.536 0-15.804 8.4667-15.804 25.4v31.327h49.603l0.49201 11.289h-50.095v97.931c0 4.3274 0.47037 7.4318 1.4111 9.3133 0.94074 1.8815 2.9163 3.1985 5.9267 3.9511 3.0104 0.56444 8.0904 0.84666 15.24 0.84666v9.3133h-73.66z" fill="#fff"/></g><g transform="matrix(1.521 0 0 1.521 1592.7 -766.79)" fill="#fff" stroke-opacity=".14613" stroke-width="2.1177" style="shape-inside:url(#rect2013-28);white-space:pre" aria-label="t"><path d="m-8.2655 214.64c-10.348 0-18.439-2.8222-24.271-8.4667-5.8326-5.8326-8.7489-14.017-8.7489-24.553v-95.736l-10.762-0.0062-5.8889-11.29c9.7837-3.0104 17.592-6.1076 23.424-13.54s10.442-17.78 13.829-30.762h11.853v44.309h30.198v11.289h-30.198v85.859c0 8.4667 1.5993 14.77 4.7978 18.909 3.1985 4.1393 8.1844 6.2089 14.958 6.2089 5.08 0 9.7837-0.94074 14.111-2.8222l3.1044 7.0556c-6.9615 4.5156-12.982 7.9022-18.062 10.16-4.8918 2.2578-11.007 3.3867-18.344 3.3867z"/></g><path transform="matrix(1.6 0 0 1.6 1316.5 -867.25)" d="m-60.476 274.78c365.84-155.59 444.97 30.785 461.89 30.994l-16.631 183.7-459.62-63.5z" fill="#add8e6" mask="url(#mask2860-69-4)" stroke="#add8e6" stroke-width=".26458px"/><path x="-60.476196" y="-40.821442" width="349.25" height="349.25" rx="30.000046" ry="30.000046" d="m-30.476-40.821h289.25c16.62 0 30 13.38 30 30v289.25c0 16.62-13.38 30-30 30h-289.25c-16.62 0-30-13.38-30-30v-289.25c0-16.62 13.38-30 30-30z" fill="#444"/><path transform="matrix(.26458 0 0 .26458 -60.476 -40.821)" d="m1232.5 727.31c-226.33 0.76667-604.13 99.283-1232.5 406.37v72.941c-2.8422e-14 62.816 50.569 113.39 113.38 113.39h1093.2c62.816 0 113.39-50.571 113.39-113.39v-474.03c-26.319-3.5171-55.402-5.3862-87.549-5.2773z" fill="#66b7d1" stroke="#add8e6" stroke-width="1px"/><path transform="matrix(.26458 0 0 .26458 -60.476 -40.821)" d="m1155.1 961.01c-257.17 0.40225-626.05 61.052-1155.1 231.81v13.789c-2.8422e-14 62.816 50.569 113.39 113.38 113.39h1093.2c62.816 0 113.39-50.571 113.39-113.39v-236.36c-49.114-6.0302-103.87-9.3358-164.93-9.2402z" fill="#add8e6" stroke="#add8e6" stroke-width="1px"/><g transform="matrix(1.521 0 0 1.521 75.92 -24.802)" fill="#fff" style="shape-inside:url(#rect2013);white-space:pre" aria-label="f"><path d="m-50.881 194.35c5.6444 0 9.6896-0.37629 12.136-1.1289 2.4459-0.75259 4.0452-2.0696 4.7978-3.9511s1.1289-4.8918 1.1289-9.0311v-97.931h-18.062v-11.289h18.062v-17.216c0-15.052 4.3274-26.905 12.982-35.56 8.6548-8.843 20.32-13.264 34.996-13.264 11.477 0 20.32 2.54 26.529 7.62 6.2089 5.08 9.3133 11.383 9.3133 18.909 0 4.5156-1.223 8.0904-3.6689 10.724s-6.1148 3.9511-11.007 3.9511c-4.7037 0-8.3726-1.223-11.007-3.6689-2.4459-2.4459-3.6689-5.8326-3.6689-10.16 0-2.8222 0.56444-5.3622 1.6933-7.62 1.317-2.2578 1.9756-3.857 1.9756-4.7978 0-1.317-0.94074-2.54-2.8222-3.6689-1.6933-1.317-3.857-1.9756-6.4911-1.9756-10.536 0-15.804 8.4667-15.804 25.4v31.327h49.603l0.49201 11.289h-50.095v97.931c0 4.3274 0.47037 7.4318 1.4111 9.3133 0.94074 1.8815 2.9163 3.1985 5.9267 3.9511 3.0104 0.56444 8.0904 0.84666 15.24 0.84666v9.3133h-73.66z" fill="#fff"/></g><g transform="matrix(1.521 0 0 1.521 207.74 -30.231)" fill="#fff" stroke-opacity=".14613" stroke-width="2.1177" style="shape-inside:url(#rect2013-28);white-space:pre" aria-label="t"><path d="m-8.2655 214.64c-10.348 0-18.439-2.8222-24.271-8.4667-5.8326-5.8326-8.7489-14.017-8.7489-24.553v-95.736l-10.762-0.0062-5.8889-11.29c9.7837-3.0104 17.592-6.1076 23.424-13.54s10.442-17.78 13.829-30.762h11.853v44.309h30.198v11.289h-30.198v85.859c0 8.4667 1.5993 14.77 4.7978 18.909 3.1985 4.1393 8.1844 6.2089 14.958 6.2089 5.08 0 9.7837-0.94074 14.111-2.8222l3.1044 7.0556c-6.9615 4.5156-12.982 7.9022-18.062 10.16-4.8918 2.2578-11.007 3.3867-18.344 3.3867z"/></g></g></svg>
