<?xml version="1.0" encoding="UTF-8" standalone="no"?>
<svg
   xmlns:dc="http://purl.org/dc/elements/1.1/"
   xmlns:cc="http://creativecommons.org/ns#"
   xmlns:rdf="http://www.w3.org/1999/02/22-rdf-syntax-ns#"
   xmlns:svg="http://www.w3.org/2000/svg"
   xmlns="http://www.w3.org/2000/svg"
   xmlns:sodipodi="http://sodipodi.sourceforge.net/DTD/sodipodi-0.dtd"
   xmlns:inkscape="http://www.inkscape.org/namespaces/inkscape"
   width="349.25mm"
   height="349.25mm"
   viewBox="0 0 349.25 349.25"
   version="1.1"
   id="svg8"
   inkscape:version="1.0 (4035a4fb49, 2020-05-01)"
   sodipodi:docname="Fontaine-Icon.svg">
  <defs
     id="defs2">
    <rect
       x="-60.476189"
       y="-40.82143"
       width="349.24999"
       height="349.24999"
       id="rect2013" />
    <rect
       x="-60.476189"
       y="-40.82143"
       width="131.49661"
       height="103.70058"
       id="rect2007" />
    <mask
       maskUnits="userSpaceOnUse"
       id="mask2860">
      <path
         sodipodi:type="rect"
         ry="30.000046"
         rx="30.000046"
         y="-40.82143"
         x="-60.476189"
         height="349.25"
         width="349.25"
         id="path2862"
         style="fill:#ffffff;fill-opacity:1;stroke:none;stroke-width:3.22101;stroke-miterlimit:4;stroke-dasharray:none;stroke-opacity:0.146132"
         d="M -30.476143,-40.82143 H 258.77377 c 16.62002,0 30.00004,13.38002 30.00004,30.000046 V 278.42852 c 0,16.62003 -13.38002,30.00005 -30.00004,30.00005 H -30.476143 c -16.620025,0 -30.000046,-13.38002 -30.000046,-30.00005 V -10.821384 c 0,-16.620026 13.380021,-30.000046 30.000046,-30.000046 z" />
    </mask>
    <mask
       maskUnits="userSpaceOnUse"
       id="mask2864">
      <path
         sodipodi:type="rect"
         ry="30.000046"
         rx="30.000046"
         y="-40.82143"
         x="-60.476189"
         height="349.25"
         width="349.25"
         id="path2866"
         style="fill:#ffffff;fill-opacity:1;stroke:none;stroke-width:3.22101;stroke-miterlimit:4;stroke-dasharray:none;stroke-opacity:0.146132"
         d="M -30.476143,-40.82143 H 258.77377 c 16.62002,0 30.00004,13.38002 30.00004,30.000046 V 278.42852 c 0,16.62003 -13.38002,30.00005 -30.00004,30.00005 H -30.476143 c -16.620025,0 -30.000046,-13.38002 -30.000046,-30.00005 V -10.821384 c 0,-16.620026 13.380021,-30.000046 30.000046,-30.000046 z" />
    </mask>
    <mask
       id="mask2864-1"
       maskUnits="userSpaceOnUse">
      <path
         d="M -30.476143,-40.82143 H 258.77377 c 16.62002,0 30.00004,13.38002 30.00004,30.000046 V 278.42852 c 0,16.62003 -13.38002,30.00005 -30.00004,30.00005 H -30.476143 c -16.620025,0 -30.000046,-13.38002 -30.000046,-30.00005 V -10.821384 c 0,-16.620026 13.380021,-30.000046 30.000046,-30.000046 z"
         style="fill:#ffffff;fill-opacity:1;stroke:none;stroke-width:3.22101;stroke-miterlimit:4;stroke-dasharray:none;stroke-opacity:0.146132"
         id="path2866-2"
         width="349.25"
         height="349.25"
         x="-60.476189"
         y="-40.82143"
         rx="30.000046"
         ry="30.000046"
         sodipodi:type="rect" />
    </mask>
    <mask
       id="mask2860-9"
       maskUnits="userSpaceOnUse">
      <path
         d="M -30.476143,-40.82143 H 258.77377 c 16.62002,0 30.00004,13.38002 30.00004,30.000046 V 278.42852 c 0,16.62003 -13.38002,30.00005 -30.00004,30.00005 H -30.476143 c -16.620025,0 -30.000046,-13.38002 -30.000046,-30.00005 V -10.821384 c 0,-16.620026 13.380021,-30.000046 30.000046,-30.000046 z"
         style="fill:#ffffff;fill-opacity:1;stroke:none;stroke-width:3.22101;stroke-miterlimit:4;stroke-dasharray:none;stroke-opacity:0.146132"
         id="path2862-5"
         width="349.25"
         height="349.25"
         x="-60.476189"
         y="-40.82143"
         rx="30.000046"
         ry="30.000046"
         sodipodi:type="rect" />
    </mask>
    <rect
       id="rect2013-2"
       height="349.25"
       width="349.25"
       y="-40.82143"
       x="-60.476189" />
    <rect
       id="rect2881"
       height="349.25"
       width="349.25"
       y="-40.82143"
       x="-60.476189" />
    <mask
       id="mask2864-17"
       maskUnits="userSpaceOnUse">
      <path
         d="M -30.476143,-40.82143 H 258.77377 c 16.62002,0 30.00004,13.38002 30.00004,30.000046 V 278.42852 c 0,16.62003 -13.38002,30.00005 -30.00004,30.00005 H -30.476143 c -16.620025,0 -30.000046,-13.38002 -30.000046,-30.00005 V -10.821384 c 0,-16.620026 13.380021,-30.000046 30.000046,-30.000046 z"
         style="fill:#ffffff;fill-opacity:1;stroke:none;stroke-width:3.22101;stroke-miterlimit:4;stroke-dasharray:none;stroke-opacity:0.146132"
         id="path2866-3"
         width="349.25"
         height="349.25"
         x="-60.476189"
         y="-40.82143"
         rx="30.000046"
         ry="30.000046"
         sodipodi:type="rect" />
    </mask>
    <mask
       id="mask2860-6"
       maskUnits="userSpaceOnUse">
      <path
         d="M -30.476143,-40.82143 H 258.77377 c 16.62002,0 30.00004,13.38002 30.00004,30.000046 V 278.42852 c 0,16.62003 -13.38002,30.00005 -30.00004,30.00005 H -30.476143 c -16.620025,0 -30.000046,-13.38002 -30.000046,-30.00005 V -10.821384 c 0,-16.620026 13.380021,-30.000046 30.000046,-30.000046 z"
         style="fill:#ffffff;fill-opacity:1;stroke:none;stroke-width:3.22101;stroke-miterlimit:4;stroke-dasharray:none;stroke-opacity:0.146132"
         id="path2862-8"
         width="349.25"
         height="349.25"
         x="-60.476189"
         y="-40.82143"
         rx="30.000046"
         ry="30.000046"
         sodipodi:type="rect" />
    </mask>
    <rect
       id="rect2013-9"
       height="349.25"
       width="349.25"
       y="-40.82143"
       x="-60.476189" />
    <rect
       id="rect2953"
       height="349.25"
       width="349.25"
       y="-40.82143"
       x="-60.476189" />
    <mask
       id="mask2864-4"
       maskUnits="userSpaceOnUse">
      <path
         d="M -30.476143,-40.82143 H 258.77377 c 16.62002,0 30.00004,13.38002 30.00004,30.000046 V 278.42852 c 0,16.62003 -13.38002,30.00005 -30.00004,30.00005 H -30.476143 c -16.620025,0 -30.000046,-13.38002 -30.000046,-30.00005 V -10.821384 c 0,-16.620026 13.380021,-30.000046 30.000046,-30.000046 z"
         style="fill:#ffffff;fill-opacity:1;stroke:none;stroke-width:3.22101;stroke-miterlimit:4;stroke-dasharray:none;stroke-opacity:0.146132"
         id="path2866-4"
         width="349.25"
         height="349.25"
         x="-60.476189"
         y="-40.82143"
         rx="30.000046"
         ry="30.000046"
         sodipodi:type="rect" />
    </mask>
    <mask
       id="mask2860-7"
       maskUnits="userSpaceOnUse">
      <path
         d="M -30.476143,-40.82143 H 258.77377 c 16.62002,0 30.00004,13.38002 30.00004,30.000046 V 278.42852 c 0,16.62003 -13.38002,30.00005 -30.00004,30.00005 H -30.476143 c -16.620025,0 -30.000046,-13.38002 -30.000046,-30.00005 V -10.821384 c 0,-16.620026 13.380021,-30.000046 30.000046,-30.000046 z"
         style="fill:#ffffff;fill-opacity:1;stroke:none;stroke-width:3.22101;stroke-miterlimit:4;stroke-dasharray:none;stroke-opacity:0.146132"
         id="path2862-53"
         width="349.25"
         height="349.25"
         x="-60.476189"
         y="-40.82143"
         rx="30.000046"
         ry="30.000046"
         sodipodi:type="rect" />
    </mask>
    <rect
       id="rect2013-3"
       height="349.25"
       width="349.25"
       y="-40.82143"
       x="-60.476189" />
    <rect
       id="rect891"
       height="349.25"
       width="349.25"
       y="-40.82143"
       x="-60.476189" />
    <rect
       id="rect2013-28"
       height="349.25"
       width="349.25"
       y="-40.82143"
       x="-60.476189" />
    <rect
       id="rect937"
       height="349.25"
       width="349.25"
       y="-40.82143"
       x="-60.476189" />
    <mask
       id="mask2864-7"
       maskUnits="userSpaceOnUse">
      <path
         d="M -30.476143,-40.82143 H 258.77377 c 16.62002,0 30.00004,13.38002 30.00004,30.000046 V 278.42852 c 0,16.62003 -13.38002,30.00005 -30.00004,30.00005 H -30.476143 c -16.620025,0 -30.000046,-13.38002 -30.000046,-30.00005 V -10.821384 c 0,-16.620026 13.380021,-30.000046 30.000046,-30.000046 z"
         style="fill:#ffffff;fill-opacity:1;stroke:none;stroke-width:3.22101;stroke-miterlimit:4;stroke-dasharray:none;stroke-opacity:0.146132"
         id="path2866-8"
         width="349.25"
         height="349.25"
         x="-60.476189"
         y="-40.82143"
         rx="30.000046"
         ry="30.000046"
         sodipodi:type="rect" />
    </mask>
    <mask
       id="mask2860-8"
       maskUnits="userSpaceOnUse">
      <path
         d="M -30.476143,-40.82143 H 258.77377 c 16.62002,0 30.00004,13.38002 30.00004,30.000046 V 278.42852 c 0,16.62003 -13.38002,30.00005 -30.00004,30.00005 H -30.476143 c -16.620025,0 -30.000046,-13.38002 -30.000046,-30.00005 V -10.821384 c 0,-16.620026 13.380021,-30.000046 30.000046,-30.000046 z"
         style="fill:#ffffff;fill-opacity:1;stroke:none;stroke-width:3.22101;stroke-miterlimit:4;stroke-dasharray:none;stroke-opacity:0.146132"
         id="path2862-4"
         width="349.25"
         height="349.25"
         x="-60.476189"
         y="-40.82143"
         rx="30.000046"
         ry="30.000046"
         sodipodi:type="rect" />
    </mask>
    <rect
       id="rect2013-5"
       height="349.25"
       width="349.25"
       y="-40.82143"
       x="-60.476189" />
    <rect
       id="rect972"
       height="349.25"
       width="349.25"
       y="-40.82143"
       x="-60.476189" />
    <rect
       x="-60.476189"
       y="-40.82143"
       width="349.25"
       height="349.25"
       id="rect2013-28-0" />
    <rect
       x="-60.476189"
       y="-40.82143"
       width="349.25"
       height="349.25"
       id="rect975" />
    <mask
       id="mask2864-0"
       maskUnits="userSpaceOnUse">
      <path
         d="M -30.476143,-40.82143 H 258.77377 c 16.62002,0 30.00004,13.38002 30.00004,30.000046 V 278.42852 c 0,16.62003 -13.38002,30.00005 -30.00004,30.00005 H -30.476143 c -16.620025,0 -30.000046,-13.38002 -30.000046,-30.00005 V -10.821384 c 0,-16.620026 13.380021,-30.000046 30.000046,-30.000046 z"
         style="fill:#ffffff;fill-opacity:1;stroke:none;stroke-width:3.22101;stroke-miterlimit:4;stroke-dasharray:none;stroke-opacity:0.146132"
         id="path2866-9"
         width="349.25"
         height="349.25"
         x="-60.476189"
         y="-40.82143"
         rx="30.000046"
         ry="30.000046"
         sodipodi:type="rect" />
    </mask>
    <mask
       id="mask2860-94"
       maskUnits="userSpaceOnUse">
      <path
         d="M -30.476143,-40.82143 H 258.77377 c 16.62002,0 30.00004,13.38002 30.00004,30.000046 V 278.42852 c 0,16.62003 -13.38002,30.00005 -30.00004,30.00005 H -30.476143 c -16.620025,0 -30.000046,-13.38002 -30.000046,-30.00005 V -10.821384 c 0,-16.620026 13.380021,-30.000046 30.000046,-30.000046 z"
         style="fill:#ffffff;fill-opacity:1;stroke:none;stroke-width:3.22101;stroke-miterlimit:4;stroke-dasharray:none;stroke-opacity:0.146132"
         id="path2862-1"
         width="349.25"
         height="349.25"
         x="-60.476189"
         y="-40.82143"
         rx="30.000046"
         ry="30.000046"
         sodipodi:type="rect" />
    </mask>
    <rect
       id="rect2013-55"
       height="349.25"
       width="349.25"
       y="-40.82143"
       x="-60.476189" />
    <rect
       id="rect1103"
       height="349.25"
       width="349.25"
       y="-40.82143"
       x="-60.476189" />
    <mask
       id="mask2864-2"
       maskUnits="userSpaceOnUse">
      <path
         d="M -30.476143,-40.82143 H 258.77377 c 16.62002,0 30.00004,13.38002 30.00004,30.000046 V 278.42852 c 0,16.62003 -13.38002,30.00005 -30.00004,30.00005 H -30.476143 c -16.620025,0 -30.000046,-13.38002 -30.000046,-30.00005 V -10.821384 c 0,-16.620026 13.380021,-30.000046 30.000046,-30.000046 z"
         style="fill:#ffffff;fill-opacity:1;stroke:none;stroke-width:3.22101;stroke-miterlimit:4;stroke-dasharray:none;stroke-opacity:0.146132"
         id="path2866-31"
         width="349.25"
         height="349.25"
         x="-60.476189"
         y="-40.82143"
         rx="30.000046"
         ry="30.000046"
         sodipodi:type="rect" />
    </mask>
    <mask
       id="mask2860-80"
       maskUnits="userSpaceOnUse">
      <path
         d="M -30.476143,-40.82143 H 258.77377 c 16.62002,0 30.00004,13.38002 30.00004,30.000046 V 278.42852 c 0,16.62003 -13.38002,30.00005 -30.00004,30.00005 H -30.476143 c -16.620025,0 -30.000046,-13.38002 -30.000046,-30.00005 V -10.821384 c 0,-16.620026 13.380021,-30.000046 30.000046,-30.000046 z"
         style="fill:#ffffff;fill-opacity:1;stroke:none;stroke-width:3.22101;stroke-miterlimit:4;stroke-dasharray:none;stroke-opacity:0.146132"
         id="path2862-51"
         width="349.25"
         height="349.25"
         x="-60.476189"
         y="-40.82143"
         rx="30.000046"
         ry="30.000046"
         sodipodi:type="rect" />
    </mask>
    <mask
       id="mask2864-9"
       maskUnits="userSpaceOnUse">
      <path
         d="M -30.476143,-40.82143 H 258.77377 c 16.62002,0 30.00004,13.38002 30.00004,30.000046 V 278.42852 c 0,16.62003 -13.38002,30.00005 -30.00004,30.00005 H -30.476143 c -16.620025,0 -30.000046,-13.38002 -30.000046,-30.00005 V -10.821384 c 0,-16.620026 13.380021,-30.000046 30.000046,-30.000046 z"
         style="fill:#ffffff;fill-opacity:1;stroke:none;stroke-width:3.22101;stroke-miterlimit:4;stroke-dasharray:none;stroke-opacity:0.146132"
         id="path2866-0"
         width="349.25"
         height="349.25"
         x="-60.476189"
         y="-40.82143"
         rx="30.000046"
         ry="30.000046"
         sodipodi:type="rect" />
    </mask>
    <mask
       id="mask2860-0"
       maskUnits="userSpaceOnUse">
      <path
         d="M -30.476143,-40.82143 H 258.77377 c 16.62002,0 30.00004,13.38002 30.00004,30.000046 V 278.42852 c 0,16.62003 -13.38002,30.00005 -30.00004,30.00005 H -30.476143 c -16.620025,0 -30.000046,-13.38002 -30.000046,-30.00005 V -10.821384 c 0,-16.620026 13.380021,-30.000046 30.000046,-30.000046 z"
         style="fill:#ffffff;fill-opacity:1;stroke:none;stroke-width:3.22101;stroke-miterlimit:4;stroke-dasharray:none;stroke-opacity:0.146132"
         id="path2862-18"
         width="349.25"
         height="349.25"
         x="-60.476189"
         y="-40.82143"
         rx="30.000046"
         ry="30.000046"
         sodipodi:type="rect" />
    </mask>
    <mask
       id="mask2864-18"
       maskUnits="userSpaceOnUse">
      <path
         d="M -30.476143,-40.82143 H 258.77377 c 16.62002,0 30.00004,13.38002 30.00004,30.000046 V 278.42852 c 0,16.62003 -13.38002,30.00005 -30.00004,30.00005 H -30.476143 c -16.620025,0 -30.000046,-13.38002 -30.000046,-30.00005 V -10.821384 c 0,-16.620026 13.380021,-30.000046 30.000046,-30.000046 z"
         style="fill:#ffffff;fill-opacity:1;stroke:none;stroke-width:3.22101;stroke-miterlimit:4;stroke-dasharray:none;stroke-opacity:0.146132"
         id="path2866-97"
         width="349.25"
         height="349.25"
         x="-60.476189"
         y="-40.82143"
         rx="30.000046"
         ry="30.000046"
         sodipodi:type="rect" />
    </mask>
    <mask
       id="mask2860-3"
       maskUnits="userSpaceOnUse">
      <path
         d="M -30.476143,-40.82143 H 258.77377 c 16.62002,0 30.00004,13.38002 30.00004,30.000046 V 278.42852 c 0,16.62003 -13.38002,30.00005 -30.00004,30.00005 H -30.476143 c -16.620025,0 -30.000046,-13.38002 -30.000046,-30.00005 V -10.821384 c 0,-16.620026 13.380021,-30.000046 30.000046,-30.000046 z"
         style="fill:#ffffff;fill-opacity:1;stroke:none;stroke-width:3.22101;stroke-miterlimit:4;stroke-dasharray:none;stroke-opacity:0.146132"
         id="path2862-7"
         width="349.25"
         height="349.25"
         x="-60.476189"
         y="-40.82143"
         rx="30.000046"
         ry="30.000046"
         sodipodi:type="rect" />
    </mask>
    <mask
       maskUnits="userSpaceOnUse"
       id="mask2864-18-7">
      <path
         sodipodi:type="rect"
         ry="30.000046"
         rx="30.000046"
         y="-40.82143"
         x="-60.476189"
         height="349.25"
         width="349.25"
         id="path2866-97-0"
         style="fill:#ffffff;fill-opacity:1;stroke:none;stroke-width:3.22101;stroke-miterlimit:4;stroke-dasharray:none;stroke-opacity:0.146132"
         d="M -30.476143,-40.82143 H 258.77377 c 16.62002,0 30.00004,13.38002 30.00004,30.000046 V 278.42852 c 0,16.62003 -13.38002,30.00005 -30.00004,30.00005 H -30.476143 c -16.620025,0 -30.000046,-13.38002 -30.000046,-30.00005 V -10.821384 c 0,-16.620026 13.380021,-30.000046 30.000046,-30.000046 z" />
    </mask>
    <mask
       maskUnits="userSpaceOnUse"
       id="mask2860-3-1">
      <path
         sodipodi:type="rect"
         ry="30.000046"
         rx="30.000046"
         y="-40.82143"
         x="-60.476189"
         height="349.25"
         width="349.25"
         id="path2862-7-4"
         style="fill:#ffffff;fill-opacity:1;stroke:none;stroke-width:3.22101;stroke-miterlimit:4;stroke-dasharray:none;stroke-opacity:0.146132"
         d="M -30.476143,-40.82143 H 258.77377 c 16.62002,0 30.00004,13.38002 30.00004,30.000046 V 278.42852 c 0,16.62003 -13.38002,30.00005 -30.00004,30.00005 H -30.476143 c -16.620025,0 -30.000046,-13.38002 -30.000046,-30.00005 V -10.821384 c 0,-16.620026 13.380021,-30.000046 30.000046,-30.000046 z" />
    </mask>
    <mask
       id="mask2864-18-7-9"
       maskUnits="userSpaceOnUse">
      <path
         d="M -30.476143,-40.82143 H 258.77377 c 16.62002,0 30.00004,13.38002 30.00004,30.000046 V 278.42852 c 0,16.62003 -13.38002,30.00005 -30.00004,30.00005 H -30.476143 c -16.620025,0 -30.000046,-13.38002 -30.000046,-30.00005 V -10.821384 c 0,-16.620026 13.380021,-30.000046 30.000046,-30.000046 z"
         style="fill:#ffffff;fill-opacity:1;stroke:none;stroke-width:3.22101;stroke-miterlimit:4;stroke-dasharray:none;stroke-opacity:0.146132"
         id="path2866-97-0-1"
         width="349.25"
         height="349.25"
         x="-60.476189"
         y="-40.82143"
         rx="30.000046"
         ry="30.000046"
         sodipodi:type="rect" />
    </mask>
    <mask
       id="mask2860-3-1-9"
       maskUnits="userSpaceOnUse">
      <path
         d="M -30.476143,-40.82143 H 258.77377 c 16.62002,0 30.00004,13.38002 30.00004,30.000046 V 278.42852 c 0,16.62003 -13.38002,30.00005 -30.00004,30.00005 H -30.476143 c -16.620025,0 -30.000046,-13.38002 -30.000046,-30.00005 V -10.821384 c 0,-16.620026 13.380021,-30.000046 30.000046,-30.000046 z"
         style="fill:#ffffff;fill-opacity:1;stroke:none;stroke-width:3.22101;stroke-miterlimit:4;stroke-dasharray:none;stroke-opacity:0.146132"
         id="path2862-7-4-9"
         width="349.25"
         height="349.25"
         x="-60.476189"
         y="-40.82143"
         rx="30.000046"
         ry="30.000046"
         sodipodi:type="rect" />
    </mask>
    <mask
       maskUnits="userSpaceOnUse"
       id="mask2864-18-4">
      <path
         sodipodi:type="rect"
         ry="30.000046"
         rx="30.000046"
         y="-40.82143"
         x="-60.476189"
         height="349.25"
         width="349.25"
         id="path2866-97-1"
         style="fill:#ffffff;fill-opacity:1;stroke:none;stroke-width:3.22101;stroke-miterlimit:4;stroke-dasharray:none;stroke-opacity:0.146132"
         d="M -30.476143,-40.82143 H 258.77377 c 16.62002,0 30.00004,13.38002 30.00004,30.000046 V 278.42852 c 0,16.62003 -13.38002,30.00005 -30.00004,30.00005 H -30.476143 c -16.620025,0 -30.000046,-13.38002 -30.000046,-30.00005 V -10.821384 c 0,-16.620026 13.380021,-30.000046 30.000046,-30.000046 z" />
    </mask>
    <mask
       maskUnits="userSpaceOnUse"
       id="mask2860-3-7">
      <path
         sodipodi:type="rect"
         ry="30.000046"
         rx="30.000046"
         y="-40.82143"
         x="-60.476189"
         height="349.25"
         width="349.25"
         id="path2862-7-5"
         style="fill:#ffffff;fill-opacity:1;stroke:none;stroke-width:3.22101;stroke-miterlimit:4;stroke-dasharray:none;stroke-opacity:0.146132"
         d="M -30.476143,-40.82143 H 258.77377 c 16.62002,0 30.00004,13.38002 30.00004,30.000046 V 278.42852 c 0,16.62003 -13.38002,30.00005 -30.00004,30.00005 H -30.476143 c -16.620025,0 -30.000046,-13.38002 -30.000046,-30.00005 V -10.821384 c 0,-16.620026 13.380021,-30.000046 30.000046,-30.000046 z" />
    </mask>
    <mask
       id="mask2864-19"
       maskUnits="userSpaceOnUse">
      <path
         d="M -30.476143,-40.82143 H 258.77377 c 16.62002,0 30.00004,13.38002 30.00004,30.000046 V 278.42852 c 0,16.62003 -13.38002,30.00005 -30.00004,30.00005 H -30.476143 c -16.620025,0 -30.000046,-13.38002 -30.000046,-30.00005 V -10.821384 c 0,-16.620026 13.380021,-30.000046 30.000046,-30.000046 z"
         style="fill:#ffffff;fill-opacity:1;stroke:none;stroke-width:3.22101;stroke-miterlimit:4;stroke-dasharray:none;stroke-opacity:0.146132"
         id="path2866-20"
         width="349.25"
         height="349.25"
         x="-60.476189"
         y="-40.82143"
         rx="30.000046"
         ry="30.000046"
         sodipodi:type="rect" />
    </mask>
    <mask
       id="mask2860-69"
       maskUnits="userSpaceOnUse">
      <path
         d="M -30.476143,-40.82143 H 258.77377 c 16.62002,0 30.00004,13.38002 30.00004,30.000046 V 278.42852 c 0,16.62003 -13.38002,30.00005 -30.00004,30.00005 H -30.476143 c -16.620025,0 -30.000046,-13.38002 -30.000046,-30.00005 V -10.821384 c 0,-16.620026 13.380021,-30.000046 30.000046,-30.000046 z"
         style="fill:#ffffff;fill-opacity:1;stroke:none;stroke-width:3.22101;stroke-miterlimit:4;stroke-dasharray:none;stroke-opacity:0.146132"
         id="path2862-3"
         width="349.25"
         height="349.25"
         x="-60.476189"
         y="-40.82143"
         rx="30.000046"
         ry="30.000046"
         sodipodi:type="rect" />
    </mask>
  </defs>
  <sodipodi:namedview
     id="base"
     pagecolor="#ffffff"
     bordercolor="#666666"
     borderopacity="1.0"
     inkscape:pageopacity="0.0"
     inkscape:pageshadow="2"
     inkscape:zoom="0.25"
     inkscape:cx="324.23934"
     inkscape:cy="832.96883"
     inkscape:document-units="mm"
     inkscape:current-layer="layer1"
     inkscape:document-rotation="0"
     showgrid="false"
     showguides="true"
     inkscape:guide-bbox="true"
     inkscape:window-width="1920"
     inkscape:window-height="1001"
     inkscape:window-x="-9"
     inkscape:window-y="-9"
     inkscape:window-maximized="1">
    <sodipodi:guide
       position="349.24999,349.25"
       orientation="0,-1"
       id="guide1420" />
    <sodipodi:guide
       position="349.24999,1.1650391e-05"
       orientation="0,-1"
       id="guide1422" />
    <sodipodi:guide
       position="3.4033203e-07,1.1650391e-05"
       orientation="1,0"
       id="guide1424" />
    <sodipodi:guide
       position="349.24999,349.25"
       orientation="1,0"
       id="guide1426" />
    <sodipodi:guide
       position="3.4033203e-07,-967.85425"
       orientation="0,-1"
       id="guide2938" />
    <sodipodi:guide
       id="guide957"
       orientation="0,-1"
       position="108.04371,23.48185" />
    <sodipodi:guide
       id="guide1030"
       orientation="0,-1"
       position="156.19866,208.02864" />
    <sodipodi:guide
       id="guide1032"
       orientation="0,-1"
       position="168.06313,225.21003" />
  </sodipodi:namedview>
  <metadata
     id="metadata5">
    <rdf:RDF>
      <cc:Work
         rdf:about="">
        <dc:format>image/svg+xml</dc:format>
        <dc:type
           rdf:resource="http://purl.org/dc/dcmitype/StillImage" />
        <dc:title />
      </cc:Work>
    </rdf:RDF>
  </metadata>
  <g
     inkscape:label="Layer 1"
     inkscape:groupmode="layer"
     id="layer1"
     transform="translate(60.476189,40.82143)">
    <path
       d="m 1063.8405,927.03284 h 289.2499 c 16.62,0 30.0001,13.38002 30.0001,30.00004 v 289.24992 c 0,16.62 -13.3801,30 -30.0001,30 h -289.2499 c -16.62,0 -30,-13.38 -30,-30 V 957.03288 c 0,-16.62002 13.38,-30.00004 30,-30.00004 z"
       style="fill:#444444;fill-opacity:1;stroke:none;stroke-width:3.22101;stroke-miterlimit:4;stroke-dasharray:none;stroke-opacity:0.146132"
       id="rect2807"
       width="349.25"
       height="349.25"
       x="1033.8405"
       y="927.03284"
       rx="30.000046"
       ry="30.000046"
       sodipodi:type="rect" />
    <path
       transform="translate(1094.3166,967.85426)"
       id="path1418-4"
       d="M -107.74486,282.81396 C 401.39401,21.704943 352.26821,230.9669 352.26821,230.9669 l 11.84893,168.59949 -463.576688,19.45756 z"
       style="fill:#66b7d1;fill-opacity:1;stroke:#add8e6;stroke-width:0.264583px;stroke-linecap:butt;stroke-linejoin:miter;stroke-opacity:1"
       mask="url(#mask2864)"
       sodipodi:nodetypes="ccccc" />
    <path
       transform="translate(1094.3166,967.85426)"
       style="fill:#add8e6;fill-opacity:1;stroke:#add8e6;stroke-width:0.264583px;stroke-linecap:butt;stroke-linejoin:miter;stroke-opacity:1"
       d="M -60.476189,274.78013 C 417.28571,120.56585 401.41071,305.77418 401.41071,305.77418 l -16.63095,183.69641 -459.619049,-63.5 z"
       id="path1418"
       mask="url(#mask2860)" />
    <text
       xml:space="preserve"
       id="text2005"
       style="fill:black;fill-opacity:1;line-height:1.25;stroke:none;font-family:sans-serif;font-style:normal;font-weight:normal;font-size:10.58333333px;white-space:pre;shape-inside:url(#rect2007);" />
    <g
       style="font-style:normal;font-variant:normal;font-weight:500;font-stretch:normal;font-size:282.222px;line-height:1.25;font-family:'Frank Ruhl Libre';-inkscape-font-specification:'Frank Ruhl Libre Medium';white-space:pre;shape-inside:url(#rect2013);fill:#ffffff;fill-opacity:1;stroke:none;stroke-width:2.11766;stroke-miterlimit:4;stroke-dasharray:none;stroke-opacity:0.146132"
       id="text2011"
       transform="matrix(1.5210193,0,0,1.5210193,1170.2368,942.5247)"
       aria-label="f">
      <path
         sodipodi:nodetypes="csssccccscssssscscscssccccssccccc"
         id="path1146"
         style="font-style:normal;font-variant:normal;font-weight:500;font-stretch:normal;font-size:282.222px;font-family:'Frank Ruhl Libre';-inkscape-font-specification:'Frank Ruhl Libre Medium';fill:#ffffff;fill-opacity:1;stroke:none;stroke-width:2.11766;stroke-miterlimit:4;stroke-dasharray:none;stroke-opacity:0.146132"
         d="m -50.881015,194.34931 c 5.64444,0 9.689622,-0.37629 12.135545,-1.12888 2.445924,-0.75259 4.045182,-2.06963 4.797774,-3.95111 0.752592,-1.88148 1.128888,-4.89185 1.128888,-9.03111 V 82.307186 h -18.062207 v -11.28888 h 18.062207 V 53.802765 c 0,-15.051839 4.327404,-26.905162 12.982211,-35.55997 8.654808,-8.8429553 20.31998307,-13.264433 34.995526,-13.264433 11.477028,0 20.319984,2.539998 26.528867,7.619994 6.208884,5.079995 9.313326,11.382953 9.313326,18.908873 0,4.515551 -1.222962,8.090363 -3.668886,10.724435 -2.445924,2.634072 -6.11481,3.951108 -11.006658,3.951108 -4.703699,0 -8.372585,-1.222962 -11.006657,-3.668886 -2.445924,-2.445924 -3.668886,-5.832588 -3.668886,-10.159991 0,-2.82222 0.564444,-5.362218 1.693332,-7.619994 1.317036,-2.257776 1.975554,-3.857034 1.975554,-4.797774 0,-1.317036 -0.94074,-2.539998 -2.82222,-3.668886 -1.693332,-1.317035 -3.857034,-1.975553 -6.491106,-1.975553 -10.5362872,0 -15.80443075,8.466659 -15.80443075,25.399978 v 31.32664 H 49.804561 l 0.492009,11.28888 H 0.20116425 v 97.931024 c 0,4.32741 0.47036998,7.43185 1.41110995,9.31333 0.9407399,1.88148 2.9162938,3.19852 5.9266617,3.95111 3.0103681,0.56444 8.0903641,0.84666 15.2399871,0.84666 v 9.31333 h -73.659938 z" />
    </g>
    <path
       sodipodi:type="rect"
       ry="30.000046"
       rx="30.000046"
       y="927.03284"
       x="-1954.9368"
       height="349.25"
       width="349.25"
       id="rect2807-4"
       style="fill:#444444;fill-opacity:1;stroke:none;stroke-width:3.22101;stroke-miterlimit:4;stroke-dasharray:none;stroke-opacity:0.146132"
       d="m -1924.9367,927.03284 h 289.2499 c 16.62,0 30,13.38002 30,30.00004 v 289.24992 c 0,16.62 -13.38,30 -30,30 h -289.2499 c -16.62,0 -30.0001,-13.38 -30.0001,-30 V 957.03288 c 0,-16.62002 13.3801,-30.00004 30.0001,-30.00004 z" />
    <path
       sodipodi:nodetypes="ccccc"
       mask="url(#mask2864-1)"
       style="fill:#66b7d1;fill-opacity:1;stroke:#add8e6;stroke-width:0.264583px;stroke-linecap:butt;stroke-linejoin:miter;stroke-opacity:1"
       d="M -107.74486,282.81396 C 401.39401,21.704943 352.26821,230.9669 352.26821,230.9669 l 11.84893,168.59949 -463.576688,19.45756 z"
       id="path1418-4-1"
       transform="translate(-1894.4605,967.85426)" />
    <path
       mask="url(#mask2860-9)"
       id="path1418-1"
       d="M -60.476189,274.78013 C 417.28571,120.56585 401.41071,305.77418 401.41071,305.77418 l -16.63095,183.69641 -459.619049,-63.5 z"
       style="fill:#add8e6;fill-opacity:1;stroke:#add8e6;stroke-width:0.264583px;stroke-linecap:butt;stroke-linejoin:miter;stroke-opacity:1"
       transform="translate(-1894.4605,967.85426)" />
    <text
       transform="matrix(1.5210193,0,0,1.5210193,-1826.6818,923.3991)"
       style="font-style:normal;font-weight:normal;font-size:282.222px;line-height:1.25;font-family:sans-serif;white-space:pre;shape-inside:url(#rect2013-2);fill:#ffffff;fill-opacity:1;stroke:none;stroke-width:2.11766;stroke-miterlimit:4;stroke-dasharray:none;stroke-opacity:0.146132;"
       id="text2011-9"
       xml:space="preserve"><tspan
         x="-60.476562"
         y="216.65741"><tspan
           style="font-style:italic;font-variant:normal;font-weight:bold;font-stretch:normal;font-size:282.222px;font-family:Taviraj;-inkscape-font-specification:'Taviraj Bold Italic';fill:#ffffff;fill-opacity:1;stroke:none;stroke-width:2.11766;stroke-miterlimit:4;stroke-dasharray:none;stroke-opacity:0.146132">F</tspan></tspan></text>
    <path
       sodipodi:type="rect"
       ry="30.000046"
       rx="30.000046"
       y="927.03284"
       x="-1535.3394"
       height="349.25"
       width="349.25"
       id="rect2807-3"
       style="fill:#444444;fill-opacity:1;stroke:none;stroke-width:3.22101;stroke-miterlimit:4;stroke-dasharray:none;stroke-opacity:0.146132"
       d="m -1505.3393,927.03284 h 289.2499 c 16.62,0 30,13.38002 30,30.00004 v 289.24992 c 0,16.62 -13.38,30 -30,30 h -289.2499 c -16.62,0 -30.0001,-13.38 -30.0001,-30 V 957.03288 c 0,-16.62002 13.3801,-30.00004 30.0001,-30.00004 z" />
    <path
       sodipodi:nodetypes="ccccc"
       mask="url(#mask2864-17)"
       style="fill:#66b7d1;fill-opacity:1;stroke:#add8e6;stroke-width:0.264583px;stroke-linecap:butt;stroke-linejoin:miter;stroke-opacity:1"
       d="M -107.74486,282.81396 C 401.39401,21.704943 352.26821,230.9669 352.26821,230.9669 l 11.84893,168.59949 -463.576688,19.45756 z"
       id="path1418-4-5"
       transform="translate(-1474.8631,967.85422)" />
    <path
       mask="url(#mask2860-6)"
       id="path1418-6"
       d="M -60.476189,274.78013 C 417.28571,120.56585 401.41071,305.77418 401.41071,305.77418 l -16.63095,183.69641 -459.619049,-63.5 z"
       style="fill:#add8e6;fill-opacity:1;stroke:#add8e6;stroke-width:0.264583px;stroke-linecap:butt;stroke-linejoin:miter;stroke-opacity:1"
       transform="translate(-1474.8631,967.85422)" />
    <text
       transform="matrix(1.5210193,0,0,1.5210193,-1385.9176,940.03002)"
       style="font-style:normal;font-weight:normal;font-size:282.222px;line-height:1.25;font-family:sans-serif;white-space:pre;shape-inside:url(#rect2013-9);fill:#ffffff;fill-opacity:1;stroke:none;stroke-width:2.11766;stroke-miterlimit:4;stroke-dasharray:none;stroke-opacity:0.146132;"
       id="text2011-96"
       xml:space="preserve"><tspan
         x="-60.476562"
         y="216.65741"><tspan
           style="font-style:italic;font-variant:normal;font-weight:bold;font-stretch:normal;font-size:282.222px;font-family:Taviraj;-inkscape-font-specification:'Taviraj Bold Italic';fill:#ffffff;fill-opacity:1;stroke:none;stroke-width:2.11766;stroke-miterlimit:4;stroke-dasharray:none;stroke-opacity:0.146132">f</tspan></tspan></text>
    <path
       d="m -1082.0059,927.03284 h 289.24987 c 16.62003,0 30.00005,13.38002 30.00005,30.00004 v 289.24992 c 0,16.62 -13.38002,30 -30.00005,30 h -289.24987 c -16.6201,0 -30.0001,-13.38 -30.0001,-30 V 957.03288 c 0,-16.62002 13.38,-30.00004 30.0001,-30.00004 z"
       sodipodi:type="rect"
       ry="30.000046"
       rx="30.000046"
       y="927.03284"
       x="-1112.006"
       height="349.25"
       width="349.25"
       id="rect2807-1"
       style="fill:#444444;fill-opacity:1;stroke:none;stroke-width:3.22101;stroke-miterlimit:4;stroke-dasharray:none;stroke-opacity:0.146132" />
    <path
       transform="translate(-1051.5298,967.85427)"
       sodipodi:nodetypes="ccccc"
       mask="url(#mask2864-4)"
       style="fill:#66b7d1;fill-opacity:1;stroke:#add8e6;stroke-width:0.264583px;stroke-linecap:butt;stroke-linejoin:miter;stroke-opacity:1"
       d="M -107.74486,282.81396 C 401.39401,21.704943 352.26821,230.9669 352.26821,230.9669 l 11.84893,168.59949 -463.576688,19.45756 z"
       id="path1418-4-10" />
    <path
       transform="translate(-1051.5298,967.85427)"
       mask="url(#mask2860-7)"
       id="path1418-10"
       d="M -60.476189,274.78013 C 417.28571,120.56585 401.41071,305.77418 401.41071,305.77418 l -16.63095,183.69641 -459.619049,-63.5 z"
       style="fill:#add8e6;fill-opacity:1;stroke:#add8e6;stroke-width:0.264583px;stroke-linecap:butt;stroke-linejoin:miter;stroke-opacity:1" />
    <text
       transform="matrix(1.5210193,0,0,1.5210193,-1004.9176,943.05388)"
       style="font-style:normal;font-variant:normal;font-weight:500;font-stretch:normal;font-size:282.222px;line-height:1.25;font-family:'Frank Ruhl Libre';-inkscape-font-specification:'Frank Ruhl Libre Medium';white-space:pre;shape-inside:url(#rect2013-3);fill:#ffffff;fill-opacity:1;stroke:none;stroke-width:2.11766;stroke-miterlimit:4;stroke-dasharray:none;stroke-opacity:0.146132;"
       id="text2011-8"
       xml:space="preserve"><tspan
         x="-60.476562"
         y="203.66264"><tspan
           style="font-style:normal;font-variant:normal;font-weight:500;font-stretch:normal;font-size:282.222px;font-family:'Frank Ruhl Libre';-inkscape-font-specification:'Frank Ruhl Libre Medium';fill:#ffffff;fill-opacity:1;stroke:none;stroke-width:2.11766;stroke-miterlimit:4;stroke-dasharray:none;stroke-opacity:0.146132">f</tspan></tspan></text>
    <g
       style="font-style:normal;font-variant:normal;font-weight:500;font-stretch:normal;font-size:282.222px;line-height:1.25;font-family:'Frank Ruhl Libre';-inkscape-font-specification:'Frank Ruhl Libre Medium';white-space:pre;shape-inside:url(#rect2013-28);fill:#ffffff;fill-opacity:1;stroke:none;stroke-width:2.11766;stroke-miterlimit:4;stroke-dasharray:none;stroke-opacity:0.146132"
       id="text2011-1"
       transform="matrix(1.5210193,0,0,1.5210193,1302.0543,937.09563)"
       aria-label="t">
      <path
         sodipodi:nodetypes="scsccczccccccssscccs"
         id="path1027"
         d="m -8.2654969,214.63921 c -10.3481391,0 -18.4385031,-2.82222 -24.2710911,-8.46666 -5.832588,-5.83259 -8.748882,-14.01702 -8.748882,-24.55331 V 85.882801 l -10.762179,-0.0062 -5.888918,-11.289722 c 9.783696,-3.010367 17.591727,-6.107578 23.424425,-13.539564 5.832698,-7.431986 10.442214,-17.779985 13.828877,-30.762196 H -8.8299409 V 74.593921 H 21.367811 v 11.28888 H -8.8299409 v 85.858669 c 0,8.46666 1.5992579,14.76962 4.7977738,18.90887 3.19851584,4.13926 8.1844376,6.20889 14.9577651,6.20889 5.079995,0 9.783695,-0.94074 14.111099,-2.82222 l 3.104442,7.05555 c -6.961476,4.51555 -12.982212,7.90221 -18.062207,10.15999 -4.8918475,2.25777 -11.00665727,3.38666 -18.3444289,3.38666 z" />
    </g>
    <path
       d="m -667.74403,927.0329 h 289.2499 c 16.62003,0 30.00005,13.38002 30.00005,30.00004 v 289.24996 c 0,16.62 -13.38002,30 -30.00005,30 h -289.2499 c -16.62003,0 -30.00005,-13.38 -30.00005,-30 V 957.03294 c 0,-16.62002 13.38002,-30.00004 30.00005,-30.00004 z"
       sodipodi:type="rect"
       ry="30.000046"
       rx="30.000046"
       y="927.0329"
       x="-697.74408"
       height="349.25"
       width="349.25"
       id="rect2807-8"
       style="fill:#444444;fill-opacity:1;stroke:none;stroke-width:3.22101;stroke-miterlimit:4;stroke-dasharray:none;stroke-opacity:0.146132" />
    <path
       transform="translate(-637.26786,967.85438)"
       sodipodi:nodetypes="ccccc"
       mask="url(#mask2864-7)"
       style="fill:#66b7d1;fill-opacity:1;stroke:#add8e6;stroke-width:0.264583px;stroke-linecap:butt;stroke-linejoin:miter;stroke-opacity:1"
       d="M -107.74486,282.81396 C 401.39401,21.704943 352.26821,230.9669 352.26821,230.9669 l 11.84893,168.59949 -463.576688,19.45756 z"
       id="path1418-4-4" />
    <path
       transform="translate(-637.26786,967.85438)"
       mask="url(#mask2860-8)"
       id="path1418-13"
       d="M -60.476189,274.78013 C 417.28571,120.56585 401.41071,305.77418 401.41071,305.77418 l -16.63095,183.69641 -459.619049,-63.5 z"
       style="fill:#add8e6;fill-opacity:1;stroke:#add8e6;stroke-width:0.264583px;stroke-linecap:butt;stroke-linejoin:miter;stroke-opacity:1" />
    <text
       transform="matrix(1.5210193,0,0,1.5210193,-590.65574,943.05394)"
       style="font-style:normal;font-variant:normal;font-weight:500;font-stretch:normal;font-size:282.222px;line-height:1.25;font-family:'Frank Ruhl Libre';-inkscape-font-specification:'Frank Ruhl Libre Medium';white-space:pre;shape-inside:url(#rect2013-5);fill:#ffffff;fill-opacity:1;stroke:none;stroke-width:2.11766;stroke-miterlimit:4;stroke-dasharray:none;stroke-opacity:0.146132;"
       id="text2011-87"
       xml:space="preserve"><tspan
         x="-60.476562"
         y="203.66264"><tspan
           style="font-style:normal;font-variant:normal;font-weight:500;font-stretch:normal;font-size:282.222px;font-family:'Frank Ruhl Libre';-inkscape-font-specification:'Frank Ruhl Libre Medium';fill:#ffffff;fill-opacity:1;stroke:none;stroke-width:2.11766;stroke-miterlimit:4;stroke-dasharray:none;stroke-opacity:0.146132">f</tspan></tspan></text>
    <text
       xml:space="preserve"
       id="text2011-1-7"
       style="font-style:normal;font-variant:normal;font-weight:500;font-stretch:normal;font-size:282.222px;line-height:1.25;font-family:'Frank Ruhl Libre';-inkscape-font-specification:'Frank Ruhl Libre Medium';white-space:pre;shape-inside:url(#rect2013-28-0);fill:#ffffff;fill-opacity:1;stroke:none;stroke-width:2.11766;stroke-miterlimit:4;stroke-dasharray:none;stroke-opacity:0.146132;"
       transform="matrix(1.5210193,0,0,1.5210193,-417.35435,937.62487)"><tspan
         x="-60.476562"
         y="203.66264"><tspan>t</tspan></tspan></text>
    <path
       d="M -235.17503,927.03284 H 54.074875 c 16.620025,0 30.000046,13.38002 30.000046,30.00004 v 289.24992 c 0,16.62 -13.380021,30 -30.000046,30 H -235.17503 c -16.62003,0 -30.00005,-13.38 -30.00005,-30 V 957.03288 c 0,-16.62002 13.38002,-30.00004 30.00005,-30.00004 z"
       sodipodi:type="rect"
       ry="30.000046"
       rx="30.000046"
       y="927.03284"
       x="-265.17508"
       height="349.25"
       width="349.25"
       id="rect2807-15"
       style="fill:#444444;fill-opacity:1;stroke:none;stroke-width:3.22101;stroke-miterlimit:4;stroke-dasharray:none;stroke-opacity:0.146132" />
    <path
       transform="translate(-204.6989,967.85426)"
       sodipodi:nodetypes="ccccc"
       mask="url(#mask2864-0)"
       style="fill:#66b7d1;fill-opacity:1;stroke:#add8e6;stroke-width:0.264583px;stroke-linecap:butt;stroke-linejoin:miter;stroke-opacity:1"
       d="M -107.74486,282.81396 C 401.39401,21.704943 352.26821,230.9669 352.26821,230.9669 l 11.84893,168.59949 -463.576688,19.45756 z"
       id="path1418-4-7" />
    <path
       transform="translate(-204.6989,967.85426)"
       mask="url(#mask2860-94)"
       id="path1418-7"
       d="M -60.476189,274.78013 C 417.28571,120.56585 401.41071,305.77418 401.41071,305.77418 l -16.63095,183.69641 -459.619049,-63.5 z"
       style="fill:#add8e6;fill-opacity:1;stroke:#add8e6;stroke-width:0.264583px;stroke-linecap:butt;stroke-linejoin:miter;stroke-opacity:1" />
    <text
       transform="matrix(1.5210193,0,0,1.5210193,-148.8322,943.05387)"
       style="font-style:normal;font-variant:normal;font-weight:500;font-stretch:normal;font-size:282.222px;line-height:1.25;font-family:'Frank Ruhl Libre';-inkscape-font-specification:'Frank Ruhl Libre Medium';white-space:pre;shape-inside:url(#rect2013-55);fill:#ffffff;fill-opacity:1;stroke:none;stroke-width:2.11766;stroke-miterlimit:4;stroke-dasharray:none;stroke-opacity:0.146132;"
       id="text2011-5"
       xml:space="preserve"><tspan
         x="-60.476562"
         y="203.66264"><tspan
           style="font-style:normal;font-variant:normal;font-weight:500;font-stretch:normal;font-size:282.222px;font-family:'Frank Ruhl Libre';-inkscape-font-specification:'Frank Ruhl Libre Medium';fill:#ffffff;fill-opacity:1;stroke:none;stroke-width:2.11766;stroke-miterlimit:4;stroke-dasharray:none;stroke-opacity:0.146132">f</tspan></tspan></text>
    <g
       aria-label="t"
       transform="matrix(1.5210193,0,0,1.5210193,2.319805,937.62479)"
       id="text2011-1-6"
       style="font-style:normal;font-variant:normal;font-weight:500;font-stretch:normal;font-size:282.222px;line-height:1.25;font-family:'Frank Ruhl Libre';-inkscape-font-specification:'Frank Ruhl Libre Medium';white-space:pre;shape-inside:url(#rect2013-28);fill:#ffffff;fill-opacity:1;stroke:none;stroke-width:2.11766;stroke-miterlimit:4;stroke-dasharray:none;stroke-opacity:0.146132">
      <path
         d="m -8.2654953,214.63921 c -10.3481387,0 -18.4385027,-2.82222 -24.2710907,-8.46666 -5.832588,-5.83259 -8.748882,-14.01702 -8.748882,-24.55331 V 85.882801 H -57.936565 V 74.58683 c 9.783696,-3.010367 17.591727,-6.107578 23.424425,-13.539564 5.832698,-7.431986 10.442214,-17.779985 13.828877,-30.762196 H -8.8299393 V 74.593921 H 21.367813 v 11.28888 H -8.8299393 v 85.858669 c 0,8.46666 1.5992579,14.76962 4.7977738,18.90887 3.19851581,4.13926 8.1844376,6.20889 14.9577655,6.20889 5.079995,0 9.783695,-0.94074 14.111099,-2.82222 l 3.104442,7.05555 c -6.961476,4.51555 -12.982212,7.90221 -18.062207,10.15999 -4.8918479,2.25777 -11.0066577,3.38666 -18.3444293,3.38666 z"
         id="path1027-4"
         sodipodi:nodetypes="scsccczccccccssscccs" />
    </g>
    <path
       d="m 190.53818,927.03284 h 289.24991 c 16.62002,0 30.00004,13.38002 30.00004,30.00004 v 289.24992 c 0,16.62 -13.38002,30 -30.00004,30 H 190.53818 c -16.62003,0 -30.00005,-13.38 -30.00005,-30 V 957.03288 c 0,-16.62002 13.38002,-30.00004 30.00005,-30.00004 z"
       sodipodi:type="rect"
       ry="30.000046"
       rx="30.000046"
       y="927.03284"
       x="160.53813"
       height="349.25"
       width="349.25"
       id="rect2807-5"
       style="fill:#444444;fill-opacity:1;stroke:none;stroke-width:3.22101;stroke-miterlimit:4;stroke-dasharray:none;stroke-opacity:0.146132" />
    <path
       transform="translate(221.01433,967.85425)"
       sodipodi:nodetypes="ccccc"
       mask="url(#mask2864-2)"
       style="fill:#66b7d1;fill-opacity:1;stroke:#add8e6;stroke-width:0.264583px;stroke-linecap:butt;stroke-linejoin:miter;stroke-opacity:1"
       d="M -107.74486,282.81396 C 401.39401,21.704943 352.26821,230.9669 352.26821,230.9669 l 11.84893,168.59949 -463.576688,19.45756 z"
       id="path1418-4-13" />
    <path
       transform="translate(221.01433,967.85425)"
       mask="url(#mask2860-80)"
       id="path1418-67"
       d="M -60.476189,274.78013 C 417.28571,120.56585 401.41071,305.77418 401.41071,305.77418 l -16.63095,183.69641 -459.619049,-63.5 z"
       style="fill:#add8e6;fill-opacity:1;stroke:#add8e6;stroke-width:0.264583px;stroke-linecap:butt;stroke-linejoin:miter;stroke-opacity:1" />
    <g
       aria-label="f"
       transform="matrix(1.5210193,0,0,1.5210193,288.46783,943.05385)"
       id="text2011-51"
       style="font-style:normal;font-variant:normal;font-weight:500;font-stretch:normal;font-size:282.222px;line-height:1.25;font-family:'Frank Ruhl Libre';-inkscape-font-specification:'Frank Ruhl Libre Medium';white-space:pre;shape-inside:url(#rect2013);fill:#ffffff;fill-opacity:1;stroke:none;stroke-width:2.11766;stroke-miterlimit:4;stroke-dasharray:none;stroke-opacity:0.146132">
      <path
         d="m -50.881015,194.34931 q 8.46666,0 12.135545,-1.12888 3.668886,-1.12889 4.797774,-3.95111 1.128888,-2.82222 1.128888,-9.03111 V 82.307186 h -18.062207 v -11.28888 h 18.062207 V 53.802765 q 0,-22.577758 12.982211,-35.55997 12.9822116,-13.264433 34.995526,-13.264433 17.215542,0 26.528867,7.619994 9.313326,7.619993 9.313326,18.908873 0,6.773327 -3.668886,10.724435 -3.668886,3.951108 -11.006658,3.951108 -7.055549,0 -11.006657,-3.668886 -3.668886,-3.668886 -3.668886,-10.159991 0,-4.23333 1.693332,-7.619994 1.975554,-3.386664 1.975554,-4.797774 0,-1.975554 -2.82222,-3.668886 -2.539998,-1.975553 -6.491106,-1.975553 -15.80443075,0 -15.80443075,25.399978 v 31.32664 H 32.092249 v 11.28888 H 0.20116425 v 97.931024 q 0,6.49111 1.41110995,9.31333 1.4111099,2.82222 5.9266617,3.95111 4.5155521,0.84666 15.2399871,0.84666 v 9.31333 h -73.659938 z"
         style="font-style:normal;font-variant:normal;font-weight:500;font-stretch:normal;font-size:282.222px;font-family:'Frank Ruhl Libre';-inkscape-font-specification:'Frank Ruhl Libre Medium';fill:#ffffff;fill-opacity:1;stroke:none;stroke-width:2.11766;stroke-miterlimit:4;stroke-dasharray:none;stroke-opacity:0.146132"
         id="path1146-8" />
    </g>
    <g
       aria-label="t"
       transform="matrix(1.5210193,0,0,1.5210193,416.44624,937.62478)"
       id="text2011-1-4"
       style="font-style:normal;font-variant:normal;font-weight:500;font-stretch:normal;font-size:282.222px;line-height:1.25;font-family:'Frank Ruhl Libre';-inkscape-font-specification:'Frank Ruhl Libre Medium';white-space:pre;shape-inside:url(#rect2013-28);fill:#ffffff;fill-opacity:1;stroke:none;stroke-width:2.11766;stroke-miterlimit:4;stroke-dasharray:none;stroke-opacity:0.146132">
      <path
         d="m -8.2654969,214.63921 c -10.3481391,0 -18.4385031,-2.82222 -24.2710911,-8.46666 -5.832588,-5.83259 -8.748882,-14.01702 -8.748882,-24.55331 V 85.882801 l -10.762179,-0.0062 -5.888918,-11.289722 c 9.783696,-3.010367 17.591727,-6.107578 23.424425,-13.539564 5.832698,-7.431986 10.442214,-17.779985 13.828877,-30.762196 H -8.8299409 V 74.593921 H 21.367811 v 11.28888 H -8.8299409 v 85.858669 c 0,8.46666 1.5992579,14.76962 4.7977738,18.90887 3.19851584,4.13926 8.1844376,6.20889 14.9577651,6.20889 5.079995,0 9.783695,-0.94074 14.111099,-2.82222 l 3.104442,7.05555 c -6.961476,4.51555 -12.982212,7.90221 -18.062207,10.15999 -4.8918475,2.25777 -11.00665727,3.38666 -18.3444289,3.38666 z"
         id="path1027-1"
         sodipodi:nodetypes="scsccczccccccssscccs" />
    </g>
    <path
       d="m 628.86552,927.03284 h 289.24991 c 16.62003,0 30.00005,13.38002 30.00005,30.00004 v 289.24992 c 0,16.62 -13.38002,30 -30.00005,30 H 628.86552 c -16.62002,0 -30.00004,-13.38 -30.00004,-30 V 957.03288 c 0,-16.62002 13.38002,-30.00004 30.00004,-30.00004 z"
       sodipodi:type="rect"
       ry="30.000046"
       rx="30.000046"
       y="927.03284"
       x="598.86548"
       height="349.25"
       width="349.25"
       id="rect2807-84"
       style="fill:#444444;fill-opacity:1;stroke:none;stroke-width:3.22101;stroke-miterlimit:4;stroke-dasharray:none;stroke-opacity:0.146132" />
    <path
       transform="translate(659.34166,967.85422)"
       sodipodi:nodetypes="ccccc"
       mask="url(#mask2864-9)"
       style="fill:#66b7d1;fill-opacity:1;stroke:#add8e6;stroke-width:0.264583px;stroke-linecap:butt;stroke-linejoin:miter;stroke-opacity:1"
       d="M -107.74486,282.81396 C 401.39401,21.704943 352.26821,230.9669 352.26821,230.9669 l 11.84893,168.59949 -463.576688,19.45756 z"
       id="path1418-4-72" />
    <path
       transform="translate(659.34166,967.85422)"
       mask="url(#mask2860-0)"
       id="path1418-77"
       d="M -60.476189,274.78013 C 417.28571,120.56585 401.41071,305.77418 401.41071,305.77418 l -16.63095,183.69641 -459.619049,-63.5 z"
       style="fill:#add8e6;fill-opacity:1;stroke:#add8e6;stroke-width:0.264583px;stroke-linecap:butt;stroke-linejoin:miter;stroke-opacity:1" />
    <g
       aria-label="f"
       transform="matrix(1.5210193,0,0,1.5210193,735.26187,942.52467)"
       id="text2011-3"
       style="font-style:normal;font-variant:normal;font-weight:500;font-stretch:normal;font-size:282.222px;line-height:1.25;font-family:'Frank Ruhl Libre';-inkscape-font-specification:'Frank Ruhl Libre Medium';white-space:pre;shape-inside:url(#rect2013);fill:#ffffff;fill-opacity:1;stroke:none;stroke-width:2.11766;stroke-miterlimit:4;stroke-dasharray:none;stroke-opacity:0.146132">
      <path
         d="m -50.881015,194.34931 q 8.46666,0 12.135545,-1.12888 3.668886,-1.12889 4.797774,-3.95111 1.128888,-2.82222 1.128888,-9.03111 V 82.307186 h -18.062207 v -11.28888 h 18.062207 V 53.802765 q 0,-22.577758 12.982211,-35.55997 12.9822116,-13.264433 34.995526,-13.264433 17.215542,0 26.528867,7.619994 9.313326,7.619993 9.313326,18.908873 0,6.773327 -3.668886,10.724435 -3.668886,3.951108 -11.006658,3.951108 -7.055549,0 -11.006657,-3.668886 -3.668886,-3.668886 -3.668886,-10.159991 0,-4.23333 1.693332,-7.619994 1.975554,-3.386664 1.975554,-4.797774 0,-1.975554 -2.82222,-3.668886 -2.539998,-1.975553 -6.491106,-1.975553 -15.80443075,0 -15.80443075,25.399978 v 31.32664 H 32.092249 v 11.28888 H 0.20116425 v 97.931024 q 0,6.49111 1.41110995,9.31333 1.4111099,2.82222 5.9266617,3.95111 4.5155521,0.84666 15.2399871,0.84666 v 9.31333 h -73.659938 z"
         style="font-style:normal;font-variant:normal;font-weight:500;font-stretch:normal;font-size:282.222px;font-family:'Frank Ruhl Libre';-inkscape-font-specification:'Frank Ruhl Libre Medium';fill:#ffffff;fill-opacity:1;stroke:none;stroke-width:2.11766;stroke-miterlimit:4;stroke-dasharray:none;stroke-opacity:0.146132"
         id="path1146-6" />
    </g>
    <g
       aria-label="t"
       transform="matrix(1.5210193,0,0,1.5210193,863.24027,937.09559)"
       id="text2011-1-48"
       style="font-style:normal;font-variant:normal;font-weight:500;font-stretch:normal;font-size:282.222px;line-height:1.25;font-family:'Frank Ruhl Libre';-inkscape-font-specification:'Frank Ruhl Libre Medium';white-space:pre;shape-inside:url(#rect2013-28);fill:#ffffff;fill-opacity:1;stroke:none;stroke-width:2.11766;stroke-miterlimit:4;stroke-dasharray:none;stroke-opacity:0.146132">
      <path
         d="m -8.2654969,214.63921 c -10.3481391,0 -18.4385031,-2.82222 -24.2710911,-8.46666 -5.832588,-5.83259 -8.748882,-14.01702 -8.748882,-24.55331 V 85.882801 l -10.762179,-0.0062 -5.888918,-11.289722 c 9.783696,-3.010367 17.591727,-6.107578 23.424425,-13.539564 5.832698,-7.431986 10.442214,-17.779985 13.828877,-30.762196 H -8.8299409 V 74.593921 H 21.367811 v 11.28888 H -8.8299409 v 85.858669 c 0,8.46666 1.5992579,14.76962 4.7977738,18.90887 3.19851584,4.13926 8.1844376,6.20889 14.9577651,6.20889 5.079995,0 9.783695,-0.94074 14.111099,-2.82222 l 3.104442,7.05555 c -6.961476,4.51555 -12.982212,7.90221 -18.062207,10.15999 -4.8918475,2.25777 -11.00665727,3.38666 -18.3444289,3.38666 z"
         id="path1027-7"
         sodipodi:nodetypes="scsccczccccccssscccs" />
    </g>
    <path
       d="m 1494.4897,927.03284 h 289.2499 c 16.62,0 30,13.38002 30,30.00004 v 289.24992 c 0,16.62 -13.38,30 -30,30 h -289.2499 c -16.6201,0 -30.0001,-13.38 -30.0001,-30 V 957.03288 c 0,-16.62002 13.38,-30.00004 30.0001,-30.00004 z"
       style="fill:#444444;fill-opacity:1;stroke:none;stroke-width:3.22101;stroke-miterlimit:4;stroke-dasharray:none;stroke-opacity:0.146132"
       id="rect2807-10-2"
       width="349.25"
       height="349.25"
       x="1464.4896"
       y="927.03284"
       rx="30.000046"
       ry="30.000046"
       sodipodi:type="rect" />
    <path
       transform="translate(1524.9657,967.8542)"
       id="path1418-4-8-0"
       d="M -107.74486,282.81396 C 401.39401,21.704943 352.26821,230.9669 352.26821,230.9669 l 11.84893,168.59949 -463.576688,19.45756 z"
       style="fill:#66b7d1;fill-opacity:1;stroke:#add8e6;stroke-width:0.264583px;stroke-linecap:butt;stroke-linejoin:miter;stroke-opacity:1"
       mask="url(#mask2864-18-7)"
       sodipodi:nodetypes="ccccc" />
    <path
       transform="translate(1524.9657,967.8542)"
       style="fill:#add8e6;fill-opacity:1;stroke:#add8e6;stroke-width:0.264583px;stroke-linecap:butt;stroke-linejoin:miter;stroke-opacity:1"
       d="M -60.476189,274.78013 C 417.28571,120.56585 401.41071,305.77418 401.41071,305.77418 l -16.63095,183.69641 -459.619049,-63.5 z"
       id="path1418-61-5"
       mask="url(#mask2860-3-1)" />
    <g
       style="font-style:normal;font-variant:normal;font-weight:500;font-stretch:normal;font-size:282.222px;line-height:1.25;font-family:'Frank Ruhl Libre';-inkscape-font-specification:'Frank Ruhl Libre Medium';white-space:pre;shape-inside:url(#rect2013);fill:#ffffff;fill-opacity:1;stroke:none;stroke-width:2.11766;stroke-miterlimit:4;stroke-dasharray:none;stroke-opacity:0.146132"
       id="text2011-94-3"
       transform="matrix(1.5210193,0,0,1.5210193,1600.8859,942.52462)"
       aria-label="f">
      <path
         sodipodi:nodetypes="csssccccscssssscscscssccccssccccc"
         id="path1146-1-2"
         style="font-style:normal;font-variant:normal;font-weight:500;font-stretch:normal;font-size:282.222px;font-family:'Frank Ruhl Libre';-inkscape-font-specification:'Frank Ruhl Libre Medium';fill:#ffffff;fill-opacity:1;stroke:none;stroke-width:2.11766;stroke-miterlimit:4;stroke-dasharray:none;stroke-opacity:0.146132"
         d="m -50.881015,194.34931 c 5.64444,0 9.689622,-0.37629 12.135545,-1.12888 2.445924,-0.75259 4.045182,-2.06963 4.797774,-3.95111 0.752592,-1.88148 1.128888,-4.89185 1.128888,-9.03111 V 82.307186 h -18.062207 v -11.28888 h 18.062207 V 53.802765 c 0,-15.051839 4.327404,-26.905162 12.982211,-35.55997 8.654808,-8.8429553 20.31998307,-13.264433 34.995526,-13.264433 11.477028,0 20.319984,2.539998 26.528867,7.619994 6.208884,5.079995 9.313326,11.382953 9.313326,18.908873 0,4.515551 -1.222962,8.090363 -3.668886,10.724435 -2.445924,2.634072 -6.11481,3.951108 -11.006658,3.951108 -4.703699,0 -8.372585,-1.222962 -11.006657,-3.668886 -2.445924,-2.445924 -3.668886,-5.832588 -3.668886,-10.159991 0,-2.82222 0.564444,-5.362218 1.693332,-7.619994 1.317036,-2.257776 1.975554,-3.857034 1.975554,-4.797774 0,-1.317036 -0.94074,-2.539998 -2.82222,-3.668886 -1.693332,-1.317035 -3.857034,-1.975553 -6.491106,-1.975553 -10.5362872,0 -15.80443075,8.466659 -15.80443075,25.399978 v 31.32664 H 49.804561 l 0.492009,11.28888 H 0.20116425 v 97.931024 c 0,4.32741 0.47036998,7.43185 1.41110995,9.31333 0.9407399,1.88148 2.9162938,3.19852 5.9266617,3.95111 3.0103681,0.56444 8.0903641,0.84666 15.2399871,0.84666 v 9.31333 h -73.659938 z" />
    </g>
    <g
       style="font-style:normal;font-variant:normal;font-weight:500;font-stretch:normal;font-size:282.222px;line-height:1.25;font-family:'Frank Ruhl Libre';-inkscape-font-specification:'Frank Ruhl Libre Medium';white-space:pre;shape-inside:url(#rect2013-28);fill:#ffffff;fill-opacity:1;stroke:none;stroke-width:2.11766;stroke-miterlimit:4;stroke-dasharray:none;stroke-opacity:0.146132"
       id="text2011-1-8-4"
       transform="matrix(1.5210193,0,0,1.5210193,1732.7034,937.09556)"
       aria-label="t">
      <path
         sodipodi:nodetypes="scsccczccccccssscccs"
         id="path1027-3-9"
         d="m -8.2654969,208.99347 c -10.3481391,0 -18.4385031,-2.82222 -24.2710911,-8.46666 -5.832588,-5.83259 -8.748882,-14.01702 -8.748882,-24.55331 V 85.882801 l -10.762179,-0.0062 -5.888918,-11.289722 c 9.783696,-3.010367 17.591727,-6.107578 23.424425,-13.539564 5.832698,-7.431986 10.442214,-17.779985 13.828877,-30.762196 H -8.8299409 V 74.593921 H 21.367811 v 11.28888 H -8.8299409 v 80.212929 c 0,8.46666 1.5992579,14.76962 4.7977738,18.90887 3.19851584,4.13926 8.1844376,6.20889 14.9577651,6.20889 5.079995,0 9.783695,-0.94074 14.111099,-2.82222 l 3.104442,7.05555 c -6.961476,4.51555 -12.982212,7.90221 -18.062207,10.15999 -4.8918475,2.25777 -11.00665727,3.38666 -18.3444289,3.38666 z" />
    </g>
    <path
       sodipodi:type="rect"
       ry="30.000046"
       rx="30.000046"
       y="927.0329"
       x="1887.6711"
       height="349.25"
       width="349.25"
       id="rect2807-10-2-2"
       style="fill:#444444;fill-opacity:1;stroke:none;stroke-width:3.22101;stroke-miterlimit:4;stroke-dasharray:none;stroke-opacity:0.146132"
       d="m 1917.6712,927.0329 h 289.2499 c 16.62,0 30,13.38002 30,30.00004 v 289.24996 c 0,16.62 -13.38,30 -30,30 h -289.2499 c -16.62,0 -30.0001,-13.38 -30.0001,-30 V 957.03294 c 0,-16.62002 13.3801,-30.00004 30.0001,-30.00004 z" />
    <path
       sodipodi:nodetypes="ccccc"
       mask="url(#mask2864-18-7-9)"
       style="fill:#66b7d1;fill-opacity:1;stroke:#add8e6;stroke-width:0.264583px;stroke-linecap:butt;stroke-linejoin:miter;stroke-opacity:1"
       d="M -107.74486,282.81396 C 401.39401,21.704943 352.26821,230.9669 352.26821,230.9669 l 11.84893,168.59949 -463.576688,19.45756 z"
       id="path1418-4-8-0-9"
       transform="translate(1948.1472,967.85426)" />
    <path
       mask="url(#mask2860-3-1-9)"
       id="path1418-61-5-8"
       d="M -60.476189,274.78013 C 417.28571,120.56585 401.41071,305.77418 401.41071,305.77418 l -16.63095,183.69641 -459.619049,-63.5 z"
       style="fill:#add8e6;fill-opacity:1;stroke:#add8e6;stroke-width:0.264583px;stroke-linecap:butt;stroke-linejoin:miter;stroke-opacity:1"
       transform="translate(1948.1472,967.85426)" />
    <g
       aria-label="f"
       transform="matrix(1.5210193,0,0,1.5210193,2020.3256,942.52469)"
       id="text2011-94-3-0"
       style="font-style:normal;font-variant:normal;font-weight:500;font-stretch:normal;font-size:282.222px;line-height:1.25;font-family:'Frank Ruhl Libre';-inkscape-font-specification:'Frank Ruhl Libre Medium';white-space:pre;shape-inside:url(#rect2013);fill:#ffffff;fill-opacity:1;stroke:none;stroke-width:2.11766;stroke-miterlimit:4;stroke-dasharray:none;stroke-opacity:0.146132">
      <path
         d="m -50.881015,194.34931 c 5.64444,0 9.689622,-0.37629 12.135545,-1.12888 2.445924,-0.75259 4.045182,-2.06963 4.797774,-3.95111 0.752592,-1.88148 1.128888,-4.89185 1.128888,-9.03111 V 82.307186 h -18.062207 v -11.28888 h 18.062207 V 53.802765 c 0,-15.051839 4.327404,-26.905162 12.982211,-35.55997 8.654808,-8.8429553 20.31998307,-13.264433 34.995526,-13.264433 11.477028,0 20.319984,2.539998 26.528867,7.619994 6.208884,5.079995 9.313326,11.382953 9.313326,18.908873 0,4.515551 -1.222962,8.090363 -3.668886,10.724435 -2.445924,2.634072 -6.11481,3.951108 -11.006658,3.951108 -4.703699,0 -8.372585,-1.222962 -11.006657,-3.668886 -2.445924,-2.445924 -3.668886,-5.832588 -3.668886,-10.159991 0,-2.82222 0.564444,-5.362218 1.693332,-7.619994 1.317036,-2.257776 1.975554,-3.857034 1.975554,-4.797774 0,-1.317036 -0.94074,-2.539998 -2.82222,-3.668886 -1.693332,-1.317035 -3.857034,-1.975553 -6.491106,-1.975553 -10.5362872,0 -15.80443075,8.466659 -15.80443075,25.399978 v 31.32664 H 49.804561 l 0.492009,11.28888 H 0.20116425 v 97.931024 c 0,4.32741 0.47036998,7.43185 1.41110995,9.31333 0.9407399,1.88148 2.9162938,3.19852 5.9266617,3.95111 3.0103681,0.56444 8.0903641,0.84666 15.2399871,0.84666 v 9.31333 h -73.659938 z"
         style="font-style:normal;font-variant:normal;font-weight:500;font-stretch:normal;font-size:282.222px;font-family:'Frank Ruhl Libre';-inkscape-font-specification:'Frank Ruhl Libre Medium';fill:#ffffff;fill-opacity:1;stroke:none;stroke-width:2.11766;stroke-miterlimit:4;stroke-dasharray:none;stroke-opacity:0.146132"
         id="path1146-1-2-0"
         sodipodi:nodetypes="csssccccscssssscscscssccccssccccc" />
    </g>
    <g
       aria-label="t"
       transform="matrix(1.5210193,0,0,1.5210193,2152.1431,937.09562)"
       id="text2011-1-8-4-9"
       style="font-style:normal;font-variant:normal;font-weight:500;font-stretch:normal;font-size:282.222px;line-height:1.25;font-family:'Frank Ruhl Libre';-inkscape-font-specification:'Frank Ruhl Libre Medium';white-space:pre;shape-inside:url(#rect2013-28);fill:#ffffff;fill-opacity:1;stroke:none;stroke-width:2.11766;stroke-miterlimit:4;stroke-dasharray:none;stroke-opacity:0.146132">
      <path
         d="m -8.2654969,208.99347 c -10.3481391,0 -18.4385031,-2.82222 -24.2710911,-8.46666 -5.832588,-5.83259 -8.748882,-14.01702 -8.748882,-24.55331 V 85.882801 l -10.762179,-0.0062 -5.888918,-11.289722 c 9.783696,-3.010367 17.591727,-6.107578 23.424425,-13.539564 5.832698,-7.431986 10.442214,-17.779985 13.828877,-30.762196 H -8.8299409 V 74.593921 H 21.367811 v 11.28888 H -8.8299409 v 80.212929 c 0,8.46666 1.5992579,14.76962 4.7977738,18.90887 3.19851584,4.13926 8.1844376,6.20889 14.9577651,6.20889 5.079995,0 9.783695,-0.94074 14.111099,-2.82222 l 3.104442,7.05555 c -6.961476,4.51555 -12.982212,7.90221 -18.062207,10.15999 -4.8918475,2.25777 -11.00665727,3.38666 -18.3444289,3.38666 z"
         id="path1027-3-9-9"
         sodipodi:nodetypes="scsccczccccccssscccs" />
    </g>
    <path
       d="m 2332.7823,927.03284 h 289.2499 c 16.62,0 30,13.38002 30,30.00004 v 289.24992 c 0,16.62 -13.38,30 -30,30 h -289.2499 c -16.6201,0 -30.0001,-13.38 -30.0001,-30 V 957.03288 c 0,-16.62002 13.38,-30.00004 30.0001,-30.00004 z"
       style="fill:#444444;fill-opacity:1;stroke:none;stroke-width:3.22101;stroke-miterlimit:4;stroke-dasharray:none;stroke-opacity:0.146132"
       id="rect2807-10-3"
       width="349.25"
       height="349.25"
       x="2302.7822"
       y="927.03284"
       rx="30.000046"
       ry="30.000046"
       sodipodi:type="rect" />
    <path
       transform="translate(2363.2583,967.85426)"
       id="path1418-4-8-4"
       d="M -107.74486,282.81396 C 401.39401,21.704943 352.26821,230.9669 352.26821,230.9669 l 11.84893,168.59949 -463.576688,19.45756 z"
       style="fill:#66b7d1;fill-opacity:1;stroke:#add8e6;stroke-width:0.264583px;stroke-linecap:butt;stroke-linejoin:miter;stroke-opacity:1"
       mask="url(#mask2864-18-4)"
       sodipodi:nodetypes="ccccc" />
    <path
       transform="translate(2363.2583,967.85426)"
       style="fill:#add8e6;fill-opacity:1;stroke:#add8e6;stroke-width:0.264583px;stroke-linecap:butt;stroke-linejoin:miter;stroke-opacity:1"
       d="M -60.476189,274.78013 C 417.28571,120.56585 401.41071,305.77418 401.41071,305.77418 l -16.63095,183.69641 -459.619049,-63.5 z"
       id="path1418-61-51"
       mask="url(#mask2860-3-7)" />
    <g
       style="font-style:normal;font-variant:normal;font-weight:500;font-stretch:normal;font-size:282.222px;line-height:1.25;font-family:'Frank Ruhl Libre';-inkscape-font-specification:'Frank Ruhl Libre Medium';white-space:pre;shape-inside:url(#rect2013);fill:#ffffff;fill-opacity:1;stroke:none;stroke-width:2.11766;stroke-miterlimit:4;stroke-dasharray:none;stroke-opacity:0.146132"
       id="text2011-94-4"
       transform="matrix(1.5210193,0,0,1.5210193,2428.7923,942.52468)"
       aria-label="f">
      <path
         sodipodi:nodetypes="csssccccscssssscscscssccccssccccc"
         id="path1146-1-7"
         style="font-style:normal;font-variant:normal;font-weight:500;font-stretch:normal;font-size:282.222px;font-family:'Frank Ruhl Libre';-inkscape-font-specification:'Frank Ruhl Libre Medium';fill:#ffffff;fill-opacity:1;stroke:none;stroke-width:2.11766;stroke-miterlimit:4;stroke-dasharray:none;stroke-opacity:0.146132"
         d="m -50.881015,194.34931 c 5.64444,0 9.689622,-0.37629 12.135545,-1.12888 2.445924,-0.75259 4.045182,-2.06963 4.797774,-3.95111 0.752592,-1.88148 1.128888,-4.89185 1.128888,-9.03111 V 82.307186 h -18.062207 v -11.28888 h 18.062207 V 53.802765 c 0,-15.051839 4.327404,-26.905162 12.982211,-35.55997 8.654808,-8.8429553 20.31998307,-13.264433 34.995526,-13.264433 11.477028,0 20.319984,2.539998 26.528867,7.619994 6.208884,5.079995 9.313326,11.382953 9.313326,18.908873 0,4.515551 -1.222962,8.090363 -3.668886,10.724435 -2.445924,2.634072 -6.11481,3.951108 -11.006658,3.951108 -4.703699,0 -8.372585,-1.222962 -11.006657,-3.668886 -2.445924,-2.445924 -3.668886,-5.832588 -3.668886,-10.159991 0,-2.82222 0.564444,-5.362218 1.693332,-7.619994 1.317036,-2.257776 1.975554,-3.857034 1.975554,-4.797774 0,-1.317036 -0.94074,-2.539998 -2.82222,-3.668886 -1.693332,-1.317035 -3.857034,-1.975553 -6.491106,-1.975553 -10.5362872,0 -15.80443075,8.466659 -15.80443075,25.399978 v 31.32664 H 49.804561 l 0.492009,11.28888 H 0.20116425 v 97.931024 c 0,4.32741 0.47036998,7.43185 1.41110995,9.31333 0.9407399,1.88148 2.9162938,3.19852 5.9266617,3.95111 3.0103681,0.56444 8.0903641,0.84666 15.2399871,0.84666 v 9.31333 h -73.659938 z" />
    </g>
    <g
       style="font-style:normal;font-variant:normal;font-weight:500;font-stretch:normal;font-size:282.222px;line-height:1.25;font-family:'Frank Ruhl Libre';-inkscape-font-specification:'Frank Ruhl Libre Medium';white-space:pre;shape-inside:url(#rect2013-28);fill:#ffffff;fill-opacity:1;stroke:none;stroke-width:2.11766;stroke-miterlimit:4;stroke-dasharray:none;stroke-opacity:0.146132"
       id="text2011-1-8-6"
       transform="matrix(1.5210193,0,0,1.5210193,2560.6098,937.09562)"
       aria-label="t">
      <path
         sodipodi:nodetypes="scsccczccccccssscccs"
         id="path1027-3-7"
         d="m -8.2654969,208.99347 c -10.3481391,0 -18.4385031,-2.82222 -24.2710911,-8.46666 -5.832588,-5.83259 -8.748882,-14.01702 -8.748882,-24.55331 V 85.882801 l -10.762179,-0.0062 -5.888918,-11.289722 c 9.783696,-3.010367 17.591727,-6.107578 23.424425,-13.539564 5.832698,-7.431986 10.442214,-17.779985 13.828877,-30.762196 H -8.8299409 V 74.593921 H 21.367811 v 11.28888 H -8.8299409 v 80.212929 c 0,8.46666 1.5992579,14.76962 4.7977738,18.90887 3.19851584,4.13926 8.1844376,6.20889 14.9577651,6.20889 5.079995,0 9.783695,-0.94074 14.111099,-2.82222 l 3.104442,7.05555 c -6.961476,4.51555 -12.982212,7.90221 -18.062207,10.15999 -4.8918475,2.25777 -11.00665727,3.38666 -18.3444289,3.38666 z" />
    </g>
    <path
       sodipodi:type="rect"
       ry="30.000046"
       rx="30.000046"
       y="-40.82143"
       x="-60.476158"
       height="349.25"
       width="349.25"
       id="rect2807-80"
       style="fill:#444444;fill-opacity:1;stroke:none;stroke-width:3.22101;stroke-miterlimit:4;stroke-dasharray:none;stroke-opacity:0.146132"
       d="M -30.476112,-40.82143 H 258.7738 c 16.62002,0 30.00004,13.38002 30.00004,30.000046 V 278.42852 c 0,16.62003 -13.38002,30.00005 -30.00004,30.00005 H -30.476112 c -16.620026,0 -30.000046,-13.38002 -30.000046,-30.00005 V -10.821384 c 0,-16.620026 13.38002,-30.000046 30.000046,-30.000046 z" />
    <path
       sodipodi:nodetypes="ccccc"
       mask="url(#mask2864-19)"
       style="fill:#66b7d1;fill-opacity:1;stroke:#add8e6;stroke-width:0.264583px;stroke-linecap:butt;stroke-linejoin:miter;stroke-opacity:1"
       d="M -107.74486,282.81396 C 401.39401,21.704943 352.26821,230.9669 352.26821,230.9669 l 11.84893,168.59949 -463.576688,19.45756 z"
       id="path1418-4-73" />
    <path
       mask="url(#mask2860-69)"
       id="path1418-70"
       d="M -60.476189,274.78013 C 417.28571,120.56585 401.41071,305.77418 401.41071,305.77418 l -16.63095,183.69641 -459.619049,-63.5 z"
       style="fill:#add8e6;fill-opacity:1;stroke:#add8e6;stroke-width:0.264583px;stroke-linecap:butt;stroke-linejoin:miter;stroke-opacity:1" />
    <g
       aria-label="f"
       transform="matrix(1.5210193,0,0,1.5210193,75.920195,-25.32958)"
       id="text2011-98"
       style="font-style:normal;font-variant:normal;font-weight:500;font-stretch:normal;font-size:282.222px;line-height:1.25;font-family:'Frank Ruhl Libre';-inkscape-font-specification:'Frank Ruhl Libre Medium';white-space:pre;shape-inside:url(#rect2013);fill:#ffffff;fill-opacity:1;stroke:none;stroke-width:2.11766;stroke-miterlimit:4;stroke-dasharray:none;stroke-opacity:0.146132">
      <path
         d="m -50.881015,194.34931 c 5.64444,0 9.689622,-0.37629 12.135545,-1.12888 2.445924,-0.75259 4.045182,-2.06963 4.797774,-3.95111 0.752592,-1.88148 1.128888,-4.89185 1.128888,-9.03111 V 82.307186 h -18.062207 v -11.28888 h 18.062207 V 53.802765 c 0,-15.051839 4.327404,-26.905162 12.982211,-35.55997 8.654808,-8.8429553 20.31998307,-13.264433 34.995526,-13.264433 11.477028,0 20.319984,2.539998 26.528867,7.619994 6.208884,5.079995 9.313326,11.382953 9.313326,18.908873 0,4.515551 -1.222962,8.090363 -3.668886,10.724435 -2.445924,2.634072 -6.11481,3.951108 -11.006658,3.951108 -4.703699,0 -8.372585,-1.222962 -11.006657,-3.668886 -2.445924,-2.445924 -3.668886,-5.832588 -3.668886,-10.159991 0,-2.82222 0.564444,-5.362218 1.693332,-7.619994 1.317036,-2.257776 1.975554,-3.857034 1.975554,-4.797774 0,-1.317036 -0.94074,-2.539998 -2.82222,-3.668886 -1.693332,-1.317035 -3.857034,-1.975553 -6.491106,-1.975553 -10.5362872,0 -15.80443075,8.466659 -15.80443075,25.399978 v 31.32664 H 49.804561 l 0.492009,11.28888 H 0.20116425 v 97.931024 c 0,4.32741 0.47036998,7.43185 1.41110995,9.31333 0.9407399,1.88148 2.9162938,3.19852 5.9266617,3.95111 3.0103681,0.56444 8.0903641,0.84666 15.2399871,0.84666 v 9.31333 h -73.659938 z"
         style="font-style:normal;font-variant:normal;font-weight:500;font-stretch:normal;font-size:282.222px;font-family:'Frank Ruhl Libre';-inkscape-font-specification:'Frank Ruhl Libre Medium';fill:#ffffff;fill-opacity:1;stroke:none;stroke-width:2.11766;stroke-miterlimit:4;stroke-dasharray:none;stroke-opacity:0.146132"
         id="path1146-83"
         sodipodi:nodetypes="csssccccscssssscscscssccccssccccc" />
    </g>
    <g
       aria-label="t"
       transform="matrix(1.5210193,0,0,1.5210193,207.73768,-30.75864)"
       id="text2011-1-0"
       style="font-style:normal;font-variant:normal;font-weight:500;font-stretch:normal;font-size:282.222px;line-height:1.25;font-family:'Frank Ruhl Libre';-inkscape-font-specification:'Frank Ruhl Libre Medium';white-space:pre;shape-inside:url(#rect2013-28);fill:#ffffff;fill-opacity:1;stroke:none;stroke-width:2.11766;stroke-miterlimit:4;stroke-dasharray:none;stroke-opacity:0.146132">
      <path
         d="m -8.2654969,214.63921 c -10.3481391,0 -18.4385031,-2.82222 -24.2710911,-8.46666 -5.832588,-5.83259 -8.748882,-14.01702 -8.748882,-24.55331 V 85.882801 l -10.762179,-0.0062 -5.888918,-11.289722 c 9.783696,-3.010367 17.591727,-6.107578 23.424425,-13.539564 5.832698,-7.431986 10.442214,-17.779985 13.828877,-30.762196 H -8.8299409 V 74.593921 H 21.367811 v 11.28888 H -8.8299409 v 85.858669 c 0,8.46666 1.5992579,14.76962 4.7977738,18.90887 3.19851584,4.13926 8.1844376,6.20889 14.9577651,6.20889 5.079995,0 9.783695,-0.94074 14.111099,-2.82222 l 3.104442,7.05555 c -6.961476,4.51555 -12.982212,7.90221 -18.062207,10.15999 -4.8918475,2.25777 -11.00665727,3.38666 -18.3444289,3.38666 z"
         id="path1027-6"
         sodipodi:nodetypes="scsccczccccccssscccs" />
    </g>
  </g>
</svg>
